<?xml version="1.0" encoding="UTF-8" standalone="no"?>
<svg
   xmlns:dc="http://purl.org/dc/elements/1.1/"
   xmlns:cc="http://creativecommons.org/ns#"
   xmlns:rdf="http://www.w3.org/1999/02/22-rdf-syntax-ns#"
   xmlns:svg="http://www.w3.org/2000/svg"
   xmlns="http://www.w3.org/2000/svg"
   xmlns:sodipodi="http://sodipodi.sourceforge.net/DTD/sodipodi-0.dtd"
   xmlns:inkscape="http://www.inkscape.org/namespaces/inkscape"
   width="0.8000204in"
   xml:space="preserve"
   inkscape:version="0.91 r13725"
   version="1.2"
   height="0.33000001in"
   viewBox="0 0 80.002038 33"
   sodipodi:docname="CD4051.svg"
   id="svg2"><metadata
     id="metadata3462"><rdf:RDF><cc:Work
         rdf:about=""><dc:format>image/svg+xml</dc:format><dc:type
           rdf:resource="http://purl.org/dc/dcmitype/StillImage" /><dc:title></dc:title></cc:Work></rdf:RDF></metadata><defs
     id="defs3460"><inkscape:perspective
       inkscape:vp_x="0 : 14.85 : 1"
       inkscape:vp_y="0 : 1000 : 0"
       inkscape:vp_z="35.999998 : 14.85 : 1"
       sodipodi:type="inkscape:persp3d"
       id="perspective2904"
       inkscape:persp3d-origin="17.999999 : 9.9000003 : 1" /><inkscape:perspective
       id="perspective2900" /><inkscape:perspective
       id="perspective3464" /><inkscape:perspective
       inkscape:vp_x="0 : 0.5 : 1"
       inkscape:vp_y="0 : 1000 : 0"
       inkscape:vp_z="0.99999994 : 0.5 : 1"
       sodipodi:type="inkscape:persp3d"
       id="perspective2914"
       inkscape:persp3d-origin="0.49999997 : 0.33333333 : 1" /></defs><sodipodi:namedview
     inkscape:window-height="1004"
     inkscape:zoom="14.332602"
     inkscape:cx="35.243432"
     inkscape:cy="-0.21356836"
     showgrid="true"
     inkscape:window-width="1707"
     objecttolerance="10"
     pagecolor="#ffffff"
     bordercolor="#666666"
     inkscape:window-x="-8"
     inkscape:window-y="-8"
     inkscape:window-maximized="1"
     inkscape:current-layer="svg2"
     id="namedview3458"
     borderopacity="1"
     guidetolerance="10"
     gridtolerance="10"
     inkscape:document-units="in"
     fit-margin-top="0"
     fit-margin-left="0"
     fit-margin-right="0"
     fit-margin-bottom="0"><inkscape:grid
       type="xygrid"
       id="grid4171"
       units="in"
       spacingx="1"
       spacingy="0.99999997"
       empspacing="10"
       originx="0"
       originy="0" /></sodipodi:namedview><rect
     style="fill:#303030"
     id="middle"
     height="27"
     y="3"
     x="0"
     width="80.002045" /><rect
     style="fill:#3d3d3d"
     id="top"
     height="2.46"
     y="3"
     x="0"
     width="80.021423" /><rect
     style="fill:#000000"
     id="bottom"
     height="2.46"
     y="27.540001"
     x="0"
     width="79.924522" /><polygon
     style="fill:#141414"
     transform="translate(39.999997,0)"
     id="right"
     points="39.25,5.46 39.25,27.54 40,30 40,3 " /><polygon
     style="fill:#1f1f1f"
     id="left"
     points="0.75,5.46 0.75,27.54 0,30 0,3 " /><polygon
     style="fill:#1c1c1c"
     id="left-upper-rect"
     points="5,11.5 0.75,11.46 0.56,13.58 0.56,16.5 5,16.5 " /><polygon
     style="fill:#383838"
     id="left-lower-rect"
     points="0.75,21.55 5,21.55 5,16.5 0.56,16.5 0.56,19.42 " /><path
     style="fill:#262626"
     inkscape:connector-curvature="0"
     d="m 0.56,13.58 0,5.83 c 1.47,-0.17 2.62,-1.4 2.62,-2.92 0,-1.52 -1.14,-2.74 -2.62,-2.91 z"
     id="slot" /><path
     style="fill:#303030"
     inkscape:connector-curvature="0"
     d="m 0.75,5.46 0,5.99 c 2.38,0.45 4.19,2.53 4.19,5.04 0,2.51 -1.8,4.6 -4.19,5.05 l 0,0.01 5,0 0,-16.09 -5,0 z"
     id="cover" /><circle
     style="fill:#212121"
     id="circle3423"
     r="2.0599999"
     cy="23.469999"
     cx="6.5" /><rect
     style="fill:#8c8c8c"
     id="connector0pin"
     height="4.3400002"
     y="28.66"
     x="3.5"
     width="3" /><rect
     style="fill:#8c8c8c"
     id="connector0terminal"
     height="3"
     y="30"
     x="3.5"
     width="3" /><polygon
     style="fill:#8c8c8c"
     id="polygon3428"
     points="3.5,28.66 3.5,30.66 6.5,30.66 8.5,29.74 8.5,28.66 " /><rect
     style="fill:#8c8c8c"
     y="0"
     id="connector7pin"
     height="4.3400002"
     x="3.5"
     width="3" /><rect
     style="fill:#8c8c8c"
     y="0"
     id="connector7terminal"
     height="3"
     x="3.5"
     width="3" /><polygon
     style="fill:#8c8c8c"
     id="polygon3432"
     points="8.5,4.34 8.5,3.26 6.5,2.34 3.5,2.34 3.5,4.34 " /><rect
     style="fill:#8c8c8c"
     id="connector3pin"
     height="4.3400002"
     y="28.66"
     x="73.499985"
     width="3" /><rect
     style="fill:#8c8c8c"
     id="connector3terminal"
     height="3"
     y="30"
     x="73.499985"
     width="3" /><polygon
     style="fill:#8c8c8c"
     transform="translate(39.999997,0)"
     id="polygon3436"
     points="36.5,30.66 36.5,28.66 31.5,28.66 31.5,29.74 33.5,30.66 " /><g
     transform="translate(40.129098,0)"
     id="g4173"><rect
       style="fill:#8c8c8c"
       width="3"
       x="33.5"
       y="0"
       height="4.3400002"
       id="connector4pin" /><rect
       style="fill:#8c8c8c"
       width="3"
       x="33.5"
       y="0"
       height="3"
       id="connector4terminal" /><polygon
       style="fill:#8c8c8c"
       points="36.5,4.34 36.5,2.34 33.5,2.34 31.5,3.26 31.5,4.34 "
       id="polygon3440" /></g><rect
     style="fill:#8c8c8c"
     id="connector1pin"
     height="4.3400002"
     y="28.66"
     x="13.5"
     width="3" /><rect
     style="fill:#8c8c8c"
     id="connector1terminal"
     height="3"
     y="30"
     x="13.5"
     width="3" /><polygon
     style="fill:#8c8c8c"
     id="polygon3444"
     points="18.5,28.66 11.5,28.66 11.5,29.74 13.5,30.66 16.5,30.66 18.5,29.74 " /><rect
     style="fill:#8c8c8c"
     id="connector6pin"
     height="4.3400002"
     y="0"
     x="13.5"
     width="3" /><rect
     style="fill:#8c8c8c"
     y="0"
     id="connector6terminal"
     height="3"
     x="13.5"
     width="3" /><polygon
     style="fill:#8c8c8c"
     id="polygon3448"
     points="11.5,4.34 18.5,4.34 18.5,3.26 16.5,2.34 13.5,2.34 11.5,3.26 " /><rect
     style="fill:#8c8c8c"
     id="connector2pin"
     height="4.3400002"
     y="28.66"
     x="23.5"
     width="3" /><rect
     style="fill:#8c8c8c"
     id="connector2terminal"
     height="3"
     y="30"
     x="23.5"
     width="3" /><polygon
     style="fill:#8c8c8c"
     id="polygon3452"
     points="28.5,28.66 21.5,28.66 21.5,29.74 23.5,30.66 26.5,30.66 28.5,29.74 " /><rect
     style="fill:#8c8c8c"
     id="connector5pin"
     height="4.3400002"
     y="0"
     x="23.5"
     width="3" /><rect
     style="fill:#8c8c8c"
     y="0"
     id="connector5terminal"
     height="3"
     x="23.5"
     width="3" /><polygon
     style="fill:#8c8c8c"
     id="polygon3456"
     points="21.5,4.34 28.5,4.34 28.5,3.26 26.5,2.34 23.5,2.34 21.5,3.26 " /><g
     transform="translate(2.1926916,0)"
     font-size="8"
     id="label-1"
     style="font-size:8px;line-height:125%;font-family:OCRA;text-align:start;writing-mode:lr-tb;text-anchor:start;fill:#e6e6e6;stroke:none"
     sodipodi:linespacing="125%"><text
       id="tspan2962"
       y="14.680809"
       sodipodi:role="line"
       x="5.2038975">CD4051</text>
</g><rect
     style="fill:#8c8c8c"
     width="3"
     x="33.499996"
     y="28.66"
     height="4.3400002"
     id="rect4178" /><rect
     style="fill:#8c8c8c"
     width="3"
     x="33.499996"
     y="30"
     height="3"
     id="rect4180" /><polygon
     style="fill:#8c8c8c"
     transform="translate(19.999999,0)"
     points="18.5,29.74 18.5,28.66 11.5,28.66 11.5,29.74 13.5,30.66 16.5,30.66 "
     id="polygon4182" /><rect
     style="fill:#8c8c8c"
     width="3"
     x="43.499992"
     y="28.66"
     height="4.3400002"
     id="rect4184" /><rect
     style="fill:#8c8c8c"
     width="3"
     x="43.499992"
     y="30"
     height="3"
     id="rect4186" /><polygon
     style="fill:#8c8c8c"
     transform="translate(19.999999,0)"
     points="28.5,29.74 28.5,28.66 21.5,28.66 21.5,29.74 23.5,30.66 26.5,30.66 "
     id="polygon4188" /><rect
     id="rect4190"
     height="4.3400002"
     y="28.66"
     x="53.499989"
     width="3"
     style="fill:#8c8c8c" /><rect
     id="rect4192"
     height="3"
     y="30"
     x="53.499989"
     width="3"
     style="fill:#8c8c8c" /><polygon
     id="polygon4194"
     points="11.5,29.74 13.5,30.66 16.5,30.66 18.5,29.74 18.5,28.66 11.5,28.66 "
     transform="translate(39.999997,0)"
     style="fill:#8c8c8c" /><rect
     id="rect4196"
     height="4.3400002"
     y="28.66"
     x="63.499985"
     width="3"
     style="fill:#8c8c8c" /><rect
     id="rect4198"
     height="3"
     y="30"
     x="63.499985"
     width="3"
     style="fill:#8c8c8c" /><polygon
     id="polygon4200"
     points="21.5,29.74 23.5,30.66 26.5,30.66 28.5,29.74 28.5,28.66 21.5,28.66 "
     transform="translate(39.999997,0)"
     style="fill:#8c8c8c" /><rect
     width="3"
     x="33.499996"
     y="0"
     height="4.3400002"
     id="rect4251"
     style="fill:#8c8c8c" /><rect
     width="3"
     x="33.499996"
     height="3"
     id="rect4253"
     y="0"
     style="fill:#8c8c8c" /><polygon
     points="16.5,2.34 13.5,2.34 11.5,3.26 11.5,4.34 18.5,4.34 18.5,3.26 "
     id="polygon4255"
     style="fill:#8c8c8c"
     transform="translate(19.999999,0)" /><rect
     width="3"
     x="43.499992"
     y="0"
     height="4.3400002"
     id="rect4257"
     style="fill:#8c8c8c" /><rect
     width="3"
     x="43.499992"
     height="3"
     id="rect4259"
     y="0"
     style="fill:#8c8c8c" /><polygon
     points="26.5,2.34 23.5,2.34 21.5,3.26 21.5,4.34 28.5,4.34 28.5,3.26 "
     id="polygon4261"
     style="fill:#8c8c8c"
     transform="translate(19.999999,0)" /><rect
     style="fill:#8c8c8c"
     id="rect4263"
     height="4.3400002"
     y="0"
     x="53.499989"
     width="3" /><rect
     style="fill:#8c8c8c"
     y="0"
     id="rect4265"
     height="3"
     x="53.499989"
     width="3" /><polygon
     transform="translate(39.999997,0)"
     style="fill:#8c8c8c"
     id="polygon4267"
     points="18.5,3.26 16.5,2.34 13.5,2.34 11.5,3.26 11.5,4.34 18.5,4.34 " /><rect
     style="fill:#8c8c8c"
     id="rect4269"
     height="4.3400002"
     y="0"
     x="63.499985"
     width="3" /><rect
     style="fill:#8c8c8c"
     y="0"
     id="rect4271"
     height="3"
     x="63.499985"
     width="3" /><polygon
     transform="translate(39.999997,0)"
     style="fill:#8c8c8c"
     id="polygon4273"
     points="28.5,3.26 26.5,2.34 23.5,2.34 21.5,3.26 21.5,4.34 28.5,4.34 " /></svg>