<?xml version="1.0" encoding="UTF-8" standalone="no"?>
<!-- Created with Inkscape (http://www.inkscape.org/) -->

<svg
   xmlns:dc="http://purl.org/dc/elements/1.1/"
   xmlns:cc="http://creativecommons.org/ns#"
   xmlns:rdf="http://www.w3.org/1999/02/22-rdf-syntax-ns#"
   xmlns:svg="http://www.w3.org/2000/svg"
   xmlns="http://www.w3.org/2000/svg"
   xmlns:sodipodi="http://sodipodi.sourceforge.net/DTD/sodipodi-0.dtd"
   xmlns:inkscape="http://www.inkscape.org/namespaces/inkscape"
   width="0.6111111in"
   height="0.61111116in"
   viewBox="0 0 55 55.000006"
   id="svg2"
   version="1.1"
   inkscape:version="0.91 r13725"
   sodipodi:docname="GY-271.svg">
  <defs
     id="defs4">
    <marker
       inkscape:stockid="TriangleOutM"
       orient="auto"
       refY="0.0"
       refX="0.0"
       id="marker12549"
       style="overflow:visible"
       inkscape:isstock="true">
      <path
         id="path12551"
         d="M 5.77,0.0 L -2.88,5.0 L -2.88,-5.0 L 5.77,0.0 z "
         style="fill-rule:evenodd;stroke:#ffffff;stroke-width:1pt;stroke-opacity:1;fill:#ffffff;fill-opacity:1"
         transform="scale(0.4)" />
    </marker>
    <marker
       inkscape:stockid="Arrow1Lstart"
       orient="auto"
       refY="0.0"
       refX="0.0"
       id="Arrow1Lstart"
       style="overflow:visible"
       inkscape:isstock="true">
      <path
         id="path11961"
         d="M 0.0,0.0 L 5.0,-5.0 L -12.5,0.0 L 5.0,5.0 L 0.0,0.0 z "
         style="fill-rule:evenodd;stroke:#ffffff;stroke-width:1pt;stroke-opacity:1;fill:#ffffff;fill-opacity:1"
         transform="scale(0.8) translate(12.5,0)" />
    </marker>
    <marker
       inkscape:stockid="Arrow1Mend"
       orient="auto"
       refY="0.0"
       refX="0.0"
       id="Arrow1Mend"
       style="overflow:visible;"
       inkscape:isstock="true">
      <path
         id="path11970"
         d="M 0.0,0.0 L 5.0,-5.0 L -12.5,0.0 L 5.0,5.0 L 0.0,0.0 z "
         style="fill-rule:evenodd;stroke:#ffffff;stroke-width:1pt;stroke-opacity:1;fill:#ffffff;fill-opacity:1"
         transform="scale(0.4) rotate(180) translate(10,0)" />
    </marker>
  </defs>
  <sodipodi:namedview
     id="base"
     pagecolor="#ffffff"
     bordercolor="#666666"
     borderopacity="1.0"
     inkscape:pageopacity="0.0"
     inkscape:pageshadow="2"
     inkscape:zoom="17.654544"
     inkscape:cx="25.80072"
     inkscape:cy="33.395312"
     inkscape:document-units="in"
     inkscape:current-layer="layer1"
     showgrid="true"
     units="in"
     showguides="false"
     inkscape:window-width="1920"
     inkscape:window-height="1138"
     inkscape:window-x="-8"
     inkscape:window-y="-8"
     inkscape:window-maximized="1"
     fit-margin-top="0"
     fit-margin-left="0"
     fit-margin-right="0"
     fit-margin-bottom="0">
    <inkscape:grid
       type="xygrid"
       id="grid3336"
       units="in"
       spacingx="0.90000001"
       spacingy="0.90000001"
       empspacing="10"
       originx="-8.5328722"
       originy="-674.57185" />
  </sodipodi:namedview>
  <metadata
     id="metadata7">
    <rdf:RDF>
      <cc:Work
         rdf:about="">
        <dc:format>image/svg+xml</dc:format>
        <dc:type
           rdf:resource="http://purl.org/dc/dcmitype/StillImage" />
        <dc:title></dc:title>
      </cc:Work>
    </rdf:RDF>
  </metadata>
  <g
     inkscape:label="Layer 1"
     inkscape:groupmode="layer"
     id="layer1"
     transform="translate(-8.5328722,-322.79034)">
    <rect
       style="fill:#0f7391;fill-opacity:1;stroke:#000000;stroke-width:1;stroke-miterlimit:4;stroke-dasharray:none;stroke-opacity:1"
       id="rect6982"
       width="54"
       height="54.000004"
       x="9.0328722"
       y="323.29034"
       sodipodi:insensitive="true" />
    <g
       id="g4493"
       transform="matrix(0,1,-1,0,129.66662,285.516)">
      <circle
         id="circle4495"
         r="1.893"
         cy="111.587"
         cx="46.854"
         style="fill:#e6e6e6" />
      <path
         id="path4497"
         d="m 48.747,111.915 c 0,-1.046 -0.848,-1.893 -1.893,-1.893 -1.045,0 -1.892,0.847 -1.892,1.893 l 0,-0.328 c 0,-1.045 0.847,-1.893 1.892,-1.893 1.045,0 1.893,0.848 1.893,1.893 l 0,0.328 z"
         enable-background="new    "
         inkscape:connector-curvature="0"
         style="opacity:0.2;fill:#ffffff" />
      <path
         id="path4499"
         d="m 44.964,111.243 c 0,1.046 0.847,1.893 1.892,1.893 1.045,0 1.895,-0.847 1.895,-1.893 l 0,0.344 c 0,1.045 -0.85,1.893 -1.895,1.893 -1.045,0 -1.892,-0.848 -1.892,-1.893 l 0,-0.344 z"
         enable-background="new    "
         inkscape:connector-curvature="0"
         style="opacity:0.1;fill:#1a1a1a" />
      <g
         id="g4501">
        <rect
           id="rect4503"
           height="1.587"
           width="1.5880001"
           y="110.793"
           x="46.061001"
           style="fill:#cccccc" />
        <rect
           id="rect4505"
           height="0.122"
           width="1.5880001"
           enable-background="new    "
           y="110.793"
           x="46.061001"
           style="opacity:0.2;fill:#ffffff" />
        <rect
           id="rect4507"
           height="0.122"
           width="1.5880001"
           enable-background="new    "
           y="112.258"
           x="46.061001"
           style="opacity:0.1" />
      </g>
    </g>
    <g
       id="g4509"
       transform="matrix(0,1,-1,0,131.43883,285.5522)">
      <circle
         id="circle4511"
         r="1.893"
         cy="104.387"
         cx="46.854"
         style="fill:#e6e6e6" />
      <path
         id="path4513"
         d="m 48.747,104.715 c 0,-1.045 -0.848,-1.894 -1.893,-1.894 -1.045,0 -1.892,0.849 -1.892,1.894 l 0,-0.327 c 0,-1.046 0.847,-1.894 1.892,-1.894 1.045,0 1.893,0.848 1.893,1.894 l 0,0.327 z"
         enable-background="new    "
         inkscape:connector-curvature="0"
         style="opacity:0.2;fill:#ffffff" />
      <path
         id="path4515"
         d="m 44.964,104.043 c 0,1.045 0.847,1.894 1.892,1.894 1.045,0 1.895,-0.849 1.895,-1.894 l 0,0.345 c 0,1.045 -0.85,1.891 -1.895,1.891 -1.045,0 -1.892,-0.846 -1.892,-1.891 l 0,-0.345 z"
         enable-background="new    "
         inkscape:connector-curvature="0"
         style="opacity:0.1;fill:#1a1a1a" />
      <g
         id="g4517">
        <rect
           id="rect4519"
           height="1.589"
           width="1.5880001"
           y="103.592"
           x="46.061001"
           style="fill:#cccccc" />
        <rect
           id="rect4521"
           height="0.123"
           width="1.5880001"
           enable-background="new    "
           y="103.592"
           x="46.061001"
           style="opacity:0.2;fill:#ffffff" />
        <rect
           id="rect4523"
           height="0.123"
           width="1.5880001"
           enable-background="new    "
           y="105.058"
           x="46.061001"
           style="opacity:0.1" />
      </g>
    </g>
    <g
       id="g4525"
       transform="matrix(0,1,-1,0,133.21103,285.55221)">
      <circle
         id="circle4527"
         r="1.893"
         cy="97.185997"
         cx="46.854"
         style="fill:#e6e6e6" />
      <path
         id="path4529"
         d="m 48.747,97.515 c 0,-1.045 -0.848,-1.892 -1.893,-1.892 -1.045,0 -1.892,0.847 -1.892,1.892 l 0,-0.328 c 0,-1.045 0.847,-1.892 1.892,-1.892 1.045,0 1.893,0.847 1.893,1.892 l 0,0.328 z"
         enable-background="new    "
         inkscape:connector-curvature="0"
         style="opacity:0.2;fill:#ffffff" />
      <path
         id="path4531"
         d="m 44.964,96.845 c 0,1.045 0.847,1.891 1.892,1.891 1.045,0 1.895,-0.846 1.895,-1.891 l 0,0.342 c 0,1.045 -0.85,1.893 -1.895,1.893 -1.045,0 -1.892,-0.848 -1.892,-1.893 l 0,-0.342 z"
         enable-background="new    "
         inkscape:connector-curvature="0"
         style="opacity:0.1;fill:#1a1a1a" />
      <g
         id="g4533">
        <rect
           id="rect4535"
           height="1.5880001"
           width="1.5880001"
           y="96.391998"
           x="46.061001"
           style="fill:#cccccc" />
        <rect
           id="rect4537"
           height="0.121"
           width="1.5880001"
           enable-background="new    "
           y="96.393997"
           x="46.061001"
           style="opacity:0.2;fill:#ffffff" />
        <rect
           id="rect4539"
           height="0.121"
           width="1.5880001"
           enable-background="new    "
           y="97.856003"
           x="46.061001"
           style="opacity:0.1" />
      </g>
    </g>
    <g
       id="g4557"
       transform="matrix(0,1,-1,0,127.77876,285.55221)">
      <circle
         id="circle4559"
         r="1.8940001"
         cy="82.785004"
         cx="46.854"
         style="fill:#e6e6e6" />
      <path
         id="path4561"
         d="m 48.747,83.112 c 0,-1.045 -0.848,-1.891 -1.893,-1.891 -1.045,0 -1.892,0.846 -1.892,1.891 l 0,-0.327 c 0,-1.046 0.847,-1.892 1.892,-1.892 1.045,0 1.893,0.846 1.893,1.892 l 0,0.327 z"
         enable-background="new    "
         inkscape:connector-curvature="0"
         style="opacity:0.2;fill:#ffffff" />
      <path
         id="path4563"
         d="m 44.964,82.442 c 0,1.045 0.847,1.892 1.892,1.892 1.045,0 1.895,-0.847 1.895,-1.892 l 0,0.343 c 0,1.045 -0.85,1.894 -1.895,1.894 -1.045,0 -1.892,-0.849 -1.892,-1.894 l 0,-0.343 z"
         enable-background="new    "
         inkscape:connector-curvature="0"
         style="opacity:0.1;fill:#1a1a1a" />
      <g
         id="g4565">
        <rect
           id="rect4567"
           height="1.587"
           width="1.5880001"
           y="81.990997"
           x="46.061001"
           style="fill:#cccccc" />
        <rect
           id="rect4569"
           height="0.121"
           width="1.5880001"
           enable-background="new    "
           y="81.990997"
           x="46.061001"
           style="opacity:0.2;fill:#ffffff" />
        <rect
           id="rect4571"
           height="0.121"
           width="1.5880001"
           enable-background="new    "
           y="83.457001"
           x="46.061001"
           style="opacity:0.1" />
      </g>
    </g>
    <g
       id="g4573"
       transform="matrix(0,1,-1,0,129.57904,285.49165)">
      <circle
         id="circle4575"
         r="1.8940001"
         cy="75.585999"
         cx="46.854"
         style="fill:#e6e6e6" />
      <path
         id="path4577"
         d="m 48.747,75.914 c 0,-1.046 -0.848,-1.894 -1.893,-1.894 -1.045,0 -1.892,0.848 -1.892,1.894 l 0,-0.328 c 0,-1.045 0.847,-1.894 1.892,-1.894 1.045,0 1.893,0.849 1.893,1.894 l 0,0.328 z"
         enable-background="new    "
         inkscape:connector-curvature="0"
         style="opacity:0.2;fill:#ffffff" />
      <path
         id="path4579"
         d="m 44.964,75.242 c 0,1.045 0.847,1.894 1.892,1.894 1.045,0 1.895,-0.849 1.895,-1.894 l 0,0.344 c 0,1.045 -0.85,1.892 -1.895,1.892 -1.045,0 -1.892,-0.847 -1.892,-1.892 l 0,-0.344 z"
         enable-background="new    "
         inkscape:connector-curvature="0"
         style="opacity:0.1;fill:#1a1a1a" />
      <g
         id="g4581">
        <rect
           id="rect4583"
           height="1.5880001"
           width="1.5880001"
           y="74.791"
           x="46.061001"
           style="fill:#cccccc" />
        <rect
           id="rect4585"
           height="0.123"
           width="1.5880001"
           enable-background="new    "
           y="74.791"
           x="46.061001"
           style="opacity:0.2;fill:#ffffff" />
        <rect
           id="rect4587"
           height="0.123"
           width="1.5880001"
           enable-background="new    "
           y="76.255997"
           x="46.061001"
           style="opacity:0.1" />
      </g>
    </g>
    <circle
       r="1.908"
       cy="332.35687"
       cx="54.019936"
       id="connector5pad"
       style="fill:none;stroke:#9a916c;stroke-width:1.22399998"
       inkscape:label="#circle7790" />
    <circle
       style="fill:none;stroke:#9a916c;stroke-width:1.22399998"
       id="connector4pad"
       cx="45.036289"
       cy="332.40768"
       r="1.908"
       inkscape:label="#circle7788" />
    <circle
       r="1.908"
       cy="332.40768"
       cx="36.007648"
       id="connector3pad"
       style="fill:none;stroke:#9a916c;stroke-width:1.22399998"
       inkscape:label="#circle7786" />
    <circle
       style="fill:none;stroke:#9a916c;stroke-width:1.22399998"
       id="connector2pad"
       cx="27.0748"
       cy="332.40768"
       r="1.908"
       inkscape:label="#circle7784" />
    <circle
       r="1.908"
       cy="332.38373"
       cx="18.094057"
       id="connector1pad"
       style="fill:none;stroke:#9a916c;stroke-width:1.22399998"
       inkscape:label="#connector38pin" />
    <text
       xml:space="preserve"
       style="font-style:normal;font-variant:normal;font-weight:normal;font-stretch:normal;font-size:4.38405895px;line-height:125%;font-family:OCRA;-inkscape-font-specification:OCRA;letter-spacing:0px;word-spacing:0px;fill:#ffffff;fill-opacity:1;stroke:none;stroke-width:1px;stroke-linecap:butt;stroke-linejoin:miter;stroke-opacity:1"
       x="337.24902"
       y="-52.351902"
       id="text7792"
       sodipodi:linespacing="125%"
       transform="matrix(0,1,-1,0,0,0)"><tspan
         sodipodi:role="line"
         id="tspan7794"
         x="337.24902"
         y="-52.351902">VCC</tspan></text>
    <text
       transform="matrix(0,1,-1,0,0,0)"
       sodipodi:linespacing="125%"
       id="text11929"
       y="-52.351902"
       x="337.24902"
       style="font-style:normal;font-variant:normal;font-weight:normal;font-stretch:normal;font-size:4.38405895px;line-height:125%;font-family:OCRA;-inkscape-font-specification:OCRA;letter-spacing:0px;word-spacing:0px;fill:#ffffff;fill-opacity:1;stroke:none;stroke-width:1px;stroke-linecap:butt;stroke-linejoin:miter;stroke-opacity:1"
       xml:space="preserve"><tspan
         y="-52.351902"
         x="337.24902"
         id="tspan11931"
         sodipodi:role="line">VCC</tspan></text>
    <text
       xml:space="preserve"
       style="font-style:normal;font-variant:normal;font-weight:normal;font-stretch:normal;font-size:4.38405895px;line-height:125%;font-family:OCRA;-inkscape-font-specification:OCRA;letter-spacing:0px;word-spacing:0px;fill:#ffffff;fill-opacity:1;stroke:none;stroke-width:1px;stroke-linecap:butt;stroke-linejoin:miter;stroke-opacity:1"
       x="337.24902"
       y="-43.062508"
       id="text11933"
       sodipodi:linespacing="125%"
       transform="matrix(0,1,-1,0,0,0)"><tspan
         sodipodi:role="line"
         id="tspan11935"
         x="337.24902"
         y="-43.062508">GND</tspan></text>
    <text
       transform="matrix(0,1,-1,0,0,0)"
       sodipodi:linespacing="125%"
       id="text11937"
       y="-34.112968"
       x="337.24902"
       style="font-style:normal;font-variant:normal;font-weight:normal;font-stretch:normal;font-size:4.38405895px;line-height:125%;font-family:OCRA;-inkscape-font-specification:OCRA;letter-spacing:0px;word-spacing:0px;fill:#ffffff;fill-opacity:1;stroke:none;stroke-width:1px;stroke-linecap:butt;stroke-linejoin:miter;stroke-opacity:1"
       xml:space="preserve"><tspan
         y="-34.112968"
         x="337.24902"
         id="tspan11939"
         sodipodi:role="line">SCL</tspan></text>
    <text
       xml:space="preserve"
       style="font-style:normal;font-variant:normal;font-weight:normal;font-stretch:normal;font-size:4.38405895px;line-height:125%;font-family:OCRA;-inkscape-font-specification:OCRA;letter-spacing:0px;word-spacing:0px;fill:#ffffff;fill-opacity:1;stroke:none;stroke-width:1px;stroke-linecap:butt;stroke-linejoin:miter;stroke-opacity:1"
       x="337.24902"
       y="-24.880217"
       id="text11941"
       sodipodi:linespacing="125%"
       transform="matrix(0,1,-1,0,0,0)"><tspan
         sodipodi:role="line"
         id="tspan11943"
         x="337.24902"
         y="-24.880217">SDA</tspan></text>
    <text
       transform="matrix(0,1,-1,0,0,0)"
       sodipodi:linespacing="125%"
       id="text11945"
       y="-15.817393"
       x="337.24902"
       style="font-style:normal;font-variant:normal;font-weight:normal;font-stretch:normal;font-size:4.38405895px;line-height:125%;font-family:OCRA;-inkscape-font-specification:OCRA;letter-spacing:0px;word-spacing:0px;fill:#ffffff;fill-opacity:1;stroke:none;stroke-width:1px;stroke-linecap:butt;stroke-linejoin:miter;stroke-opacity:1"
       xml:space="preserve"><tspan
         y="-15.817393"
         x="337.24902"
         id="tspan11947"
         sodipodi:role="line">DRDY</tspan></text>
    <text
       xml:space="preserve"
       style="font-style:normal;font-variant:normal;font-weight:normal;font-stretch:normal;font-size:6.0373435px;line-height:125%;font-family:OCRA;-inkscape-font-specification:OCRA;letter-spacing:0px;word-spacing:0px;fill:#ffffff;fill-opacity:1;stroke:none;stroke-width:1px;stroke-linecap:butt;stroke-linejoin:miter;stroke-opacity:1"
       x="12.473783"
       y="373.16629"
       id="text11949"
       sodipodi:linespacing="125%"><tspan
         sodipodi:role="line"
         id="tspan11951"
         x="12.473783"
         y="373.16629">GY-271</tspan></text>
    <circle
       style="fill:#ffffff;fill-opacity:1;stroke:none;stroke-width:1;stroke-miterlimit:4;stroke-dasharray:none;stroke-opacity:1"
       id="path11953"
       cx="48.603153"
       cy="357.62195"
       r="2.25" />
    <text
       xml:space="preserve"
       style="font-style:normal;font-weight:normal;font-size:40px;line-height:125%;font-family:Sans;letter-spacing:0px;word-spacing:0px;fill:#000000;fill-opacity:1;stroke:none;stroke-width:1px;stroke-linecap:butt;stroke-linejoin:miter;stroke-opacity:1"
       x="29.699999"
       y="355.76218"
       id="text12437"
       sodipodi:linespacing="125%"><tspan
         sodipodi:role="line"
         id="tspan12439"
         x="29.699999"
         y="355.76218"></tspan></text>
    <text
       sodipodi:linespacing="125%"
       id="text12441"
       y="353.96445"
       x="39.265755"
       style="font-style:normal;font-variant:normal;font-weight:normal;font-stretch:normal;font-size:6.0373435px;line-height:125%;font-family:OCRA;-inkscape-font-specification:OCRA;letter-spacing:0px;word-spacing:0px;fill:#ffffff;fill-opacity:1;stroke:none;stroke-width:1px;stroke-linecap:butt;stroke-linejoin:miter;stroke-opacity:1"
       xml:space="preserve"><tspan
         y="353.96445"
         x="39.265755"
         id="tspan12443"
         sodipodi:role="line">X</tspan></text>
    <text
       xml:space="preserve"
       style="font-style:normal;font-variant:normal;font-weight:normal;font-stretch:normal;font-size:6.0373435px;line-height:125%;font-family:OCRA;-inkscape-font-specification:OCRA;letter-spacing:0px;word-spacing:0px;fill:#ffffff;fill-opacity:1;stroke:none;stroke-width:1px;stroke-linecap:butt;stroke-linejoin:miter;stroke-opacity:1"
       x="51.897064"
       y="366.76569"
       id="text12445"
       sodipodi:linespacing="125%"><tspan
         sodipodi:role="line"
         id="tspan12447"
         x="51.897064"
         y="366.76569">Y</tspan></text>
    <path
       style="fill:none;fill-rule:evenodd;stroke:#ffffff;stroke-width:1px;stroke-linecap:butt;stroke-linejoin:miter;stroke-opacity:1"
       d="m 48.599998,357.56219 0,6.3"
       id="path12611"
       inkscape:connector-curvature="0" />
    <path
       inkscape:connector-curvature="0"
       id="path12613"
       d="m 48.521367,357.54021 -6.3,0"
       style="fill:none;fill-rule:evenodd;stroke:#ffffff;stroke-width:1px;stroke-linecap:butt;stroke-linejoin:miter;stroke-opacity:1" />
  </g>
</svg>
