<?xml version="1.0" encoding="UTF-8" standalone="no"?>
<!-- Created with Inkscape (http://www.inkscape.org/) -->

<svg
   xmlns:dc="http://purl.org/dc/elements/1.1/"
   xmlns:cc="http://creativecommons.org/ns#"
   xmlns:rdf="http://www.w3.org/1999/02/22-rdf-syntax-ns#"
   xmlns:svg="http://www.w3.org/2000/svg"
   xmlns="http://www.w3.org/2000/svg"
   xmlns:sodipodi="http://sodipodi.sourceforge.net/DTD/sodipodi-0.dtd"
   xmlns:inkscape="http://www.inkscape.org/namespaces/inkscape"
   width="0.79928911in"
   height="0.60000002in"
   viewBox="0 0 71.93602 54.000003"
   id="svg2"
   version="1.1"
   inkscape:version="0.91 r13725"
   sodipodi:docname="GY-302.svg">
  <defs
     id="defs4">
    <marker
       inkscape:stockid="TriangleOutM"
       orient="auto"
       refY="0"
       refX="0"
       id="marker12549"
       style="overflow:visible"
       inkscape:isstock="true">
      <path
         id="path12551"
         d="m 5.77,0 -8.65,5 0,-10 8.65,5 z"
         style="fill:#ffffff;fill-opacity:1;fill-rule:evenodd;stroke:#ffffff;stroke-width:1pt;stroke-opacity:1"
         transform="scale(0.4,0.4)"
         inkscape:connector-curvature="0" />
    </marker>
    <marker
       inkscape:stockid="Arrow1Lstart"
       orient="auto"
       refY="0"
       refX="0"
       id="Arrow1Lstart"
       style="overflow:visible"
       inkscape:isstock="true">
      <path
         id="path11961"
         d="M 0,0 5,-5 -12.5,0 5,5 0,0 Z"
         style="fill:#ffffff;fill-opacity:1;fill-rule:evenodd;stroke:#ffffff;stroke-width:1pt;stroke-opacity:1"
         transform="matrix(0.8,0,0,0.8,10,0)"
         inkscape:connector-curvature="0" />
    </marker>
    <marker
       inkscape:stockid="Arrow1Mend"
       orient="auto"
       refY="0"
       refX="0"
       id="Arrow1Mend"
       style="overflow:visible"
       inkscape:isstock="true">
      <path
         id="path11970"
         d="M 0,0 5,-5 -12.5,0 5,5 0,0 Z"
         style="fill:#ffffff;fill-opacity:1;fill-rule:evenodd;stroke:#ffffff;stroke-width:1pt;stroke-opacity:1"
         transform="matrix(-0.4,0,0,-0.4,-4,0)"
         inkscape:connector-curvature="0" />
    </marker>
  </defs>
  <sodipodi:namedview
     id="base"
     pagecolor="#ffffff"
     bordercolor="#666666"
     borderopacity="1.0"
     inkscape:pageopacity="0.0"
     inkscape:pageshadow="2"
     inkscape:zoom="8.8090902"
     inkscape:cx="15.813971"
     inkscape:cy="21.389534"
     inkscape:document-units="in"
     inkscape:current-layer="layer1"
     showgrid="true"
     units="in"
     showguides="false"
     inkscape:window-width="1920"
     inkscape:window-height="1138"
     inkscape:window-x="-8"
     inkscape:window-y="-8"
     inkscape:window-maximized="1"
     fit-margin-top="0"
     fit-margin-left="0"
     fit-margin-right="0"
     fit-margin-bottom="0">
    <inkscape:grid
       type="xygrid"
       id="grid3336"
       units="in"
       spacingx="0.90000001"
       spacingy="0.90000001"
       empspacing="10"
       originx="-9.0328722"
       originy="-675.0718" />
  </sodipodi:namedview>
  <metadata
     id="metadata7">
    <rdf:RDF>
      <cc:Work
         rdf:about="">
        <dc:format>image/svg+xml</dc:format>
        <dc:type
           rdf:resource="http://purl.org/dc/dcmitype/StillImage" />
        <dc:title></dc:title>
      </cc:Work>
    </rdf:RDF>
  </metadata>
  <g
     inkscape:groupmode="layer"
     id="layer2"
     inkscape:label="Base"
     sodipodi:insensitive="true"
     transform="translate(1.8999878e-6,-4.2382812e-6)">
    <rect
       transform="translate(-9.0328741,-323.29034)"
       style="fill:#0f7391;fill-opacity:1;stroke:none;stroke-width:1;stroke-miterlimit:4;stroke-dasharray:none;stroke-opacity:1"
       id="rect6982"
       width="71.93602"
       height="54.000004"
       x="9.0328722"
       y="323.29034" />
  </g>
  <g
     inkscape:label="Layer 1"
     inkscape:groupmode="layer"
     id="layer1"
     transform="translate(-9.0328722,-323.29034)">
    <g
       id="g4493"
       transform="translate(-28.82536,256.81737)">
      <circle
         id="circle4495"
         r="1.893"
         cy="111.587"
         cx="46.854"
         style="fill:#e6e6e6" />
      <path
         id="path4497"
         d="m 48.747,111.915 c 0,-1.046 -0.848,-1.893 -1.893,-1.893 -1.045,0 -1.892,0.847 -1.892,1.893 l 0,-0.328 c 0,-1.045 0.847,-1.893 1.892,-1.893 1.045,0 1.893,0.848 1.893,1.893 l 0,0.328 z"
         enable-background="new    "
         inkscape:connector-curvature="0"
         style="opacity:0.2;fill:#ffffff" />
      <path
         id="path4499"
         d="m 44.964,111.243 c 0,1.046 0.847,1.893 1.892,1.893 1.045,0 1.895,-0.847 1.895,-1.893 l 0,0.344 c 0,1.045 -0.85,1.893 -1.895,1.893 -1.045,0 -1.892,-0.848 -1.892,-1.893 l 0,-0.344 z"
         enable-background="new    "
         inkscape:connector-curvature="0"
         style="opacity:0.1;fill:#1a1a1a" />
      <g
         id="g4501">
        <rect
           id="rect4503"
           height="1.587"
           width="1.5880001"
           y="110.793"
           x="46.061001"
           style="fill:#cccccc" />
        <rect
           id="rect4505"
           height="0.122"
           width="1.5880001"
           enable-background="new    "
           y="110.793"
           x="46.061001"
           style="opacity:0.2;fill:#ffffff" />
        <rect
           id="rect4507"
           height="0.122"
           width="1.5880001"
           enable-background="new    "
           y="112.258"
           x="46.061001"
           style="opacity:0.1" />
      </g>
    </g>
    <g
       id="g4509"
       transform="translate(-28.78916,255.04516)">
      <circle
         id="circle4511"
         r="1.893"
         cy="104.387"
         cx="46.854"
         style="fill:#e6e6e6" />
      <path
         id="path4513"
         d="m 48.747,104.715 c 0,-1.045 -0.848,-1.894 -1.893,-1.894 -1.045,0 -1.892,0.849 -1.892,1.894 l 0,-0.327 c 0,-1.046 0.847,-1.894 1.892,-1.894 1.045,0 1.893,0.848 1.893,1.894 l 0,0.327 z"
         enable-background="new    "
         inkscape:connector-curvature="0"
         style="opacity:0.2;fill:#ffffff" />
      <path
         id="path4515"
         d="m 44.964,104.043 c 0,1.045 0.847,1.894 1.892,1.894 1.045,0 1.895,-0.849 1.895,-1.894 l 0,0.345 c 0,1.045 -0.85,1.891 -1.895,1.891 -1.045,0 -1.892,-0.846 -1.892,-1.891 l 0,-0.345 z"
         enable-background="new    "
         inkscape:connector-curvature="0"
         style="opacity:0.1;fill:#1a1a1a" />
      <g
         id="g4517">
        <rect
           id="rect4519"
           height="1.589"
           width="1.5880001"
           y="103.592"
           x="46.061001"
           style="fill:#cccccc" />
        <rect
           id="rect4521"
           height="0.123"
           width="1.5880001"
           enable-background="new    "
           y="103.592"
           x="46.061001"
           style="opacity:0.2;fill:#ffffff" />
        <rect
           id="rect4523"
           height="0.123"
           width="1.5880001"
           enable-background="new    "
           y="105.058"
           x="46.061001"
           style="opacity:0.1" />
      </g>
    </g>
    <g
       id="g4525"
       transform="translate(-28.78915,253.27296)">
      <circle
         id="circle4527"
         r="1.893"
         cy="97.185997"
         cx="46.854"
         style="fill:#e6e6e6" />
      <path
         id="path4529"
         d="m 48.747,97.515 c 0,-1.045 -0.848,-1.892 -1.893,-1.892 -1.045,0 -1.892,0.847 -1.892,1.892 l 0,-0.328 c 0,-1.045 0.847,-1.892 1.892,-1.892 1.045,0 1.893,0.847 1.893,1.892 l 0,0.328 z"
         enable-background="new    "
         inkscape:connector-curvature="0"
         style="opacity:0.2;fill:#ffffff" />
      <path
         id="path4531"
         d="m 44.964,96.845 c 0,1.045 0.847,1.891 1.892,1.891 1.045,0 1.895,-0.846 1.895,-1.891 l 0,0.342 c 0,1.045 -0.85,1.893 -1.895,1.893 -1.045,0 -1.892,-0.848 -1.892,-1.893 l 0,-0.342 z"
         enable-background="new    "
         inkscape:connector-curvature="0"
         style="opacity:0.1;fill:#1a1a1a" />
      <g
         id="g4533">
        <rect
           id="rect4535"
           height="1.5880001"
           width="1.5880001"
           y="96.391998"
           x="46.061001"
           style="fill:#cccccc" />
        <rect
           id="rect4537"
           height="0.121"
           width="1.5880001"
           enable-background="new    "
           y="96.393997"
           x="46.061001"
           style="opacity:0.2;fill:#ffffff" />
        <rect
           id="rect4539"
           height="0.121"
           width="1.5880001"
           enable-background="new    "
           y="97.856003"
           x="46.061001"
           style="opacity:0.1" />
      </g>
    </g>
    <g
       id="g4557"
       transform="translate(-28.78915,258.70523)">
      <circle
         id="circle4559"
         r="1.8940001"
         cy="82.785004"
         cx="46.854"
         style="fill:#e6e6e6" />
      <path
         id="path4561"
         d="m 48.747,83.112 c 0,-1.045 -0.848,-1.891 -1.893,-1.891 -1.045,0 -1.892,0.846 -1.892,1.891 l 0,-0.327 c 0,-1.046 0.847,-1.892 1.892,-1.892 1.045,0 1.893,0.846 1.893,1.892 l 0,0.327 z"
         enable-background="new    "
         inkscape:connector-curvature="0"
         style="opacity:0.2;fill:#ffffff" />
      <path
         id="path4563"
         d="m 44.964,82.442 c 0,1.045 0.847,1.892 1.892,1.892 1.045,0 1.895,-0.847 1.895,-1.892 l 0,0.343 c 0,1.045 -0.85,1.894 -1.895,1.894 -1.045,0 -1.892,-0.849 -1.892,-1.894 l 0,-0.343 z"
         enable-background="new    "
         inkscape:connector-curvature="0"
         style="opacity:0.1;fill:#1a1a1a" />
      <g
         id="g4565">
        <rect
           id="rect4567"
           height="1.587"
           width="1.5880001"
           y="81.990997"
           x="46.061001"
           style="fill:#cccccc" />
        <rect
           id="rect4569"
           height="0.121"
           width="1.5880001"
           enable-background="new    "
           y="81.990997"
           x="46.061001"
           style="opacity:0.2;fill:#ffffff" />
        <rect
           id="rect4571"
           height="0.121"
           width="1.5880001"
           enable-background="new    "
           y="83.457001"
           x="46.061001"
           style="opacity:0.1" />
      </g>
    </g>
    <g
       id="g4573"
       transform="translate(-28.84971,256.90495)">
      <circle
         id="circle4575"
         r="1.8940001"
         cy="75.585999"
         cx="46.854"
         style="fill:#e6e6e6" />
      <path
         id="path4577"
         d="m 48.747,75.914 c 0,-1.046 -0.848,-1.894 -1.893,-1.894 -1.045,0 -1.892,0.848 -1.892,1.894 l 0,-0.328 c 0,-1.045 0.847,-1.894 1.892,-1.894 1.045,0 1.893,0.849 1.893,1.894 l 0,0.328 z"
         enable-background="new    "
         inkscape:connector-curvature="0"
         style="opacity:0.2;fill:#ffffff" />
      <path
         id="path4579"
         d="m 44.964,75.242 c 0,1.045 0.847,1.894 1.892,1.894 1.045,0 1.895,-0.849 1.895,-1.894 l 0,0.344 c 0,1.045 -0.85,1.892 -1.895,1.892 -1.045,0 -1.892,-0.847 -1.892,-1.892 l 0,-0.344 z"
         enable-background="new    "
         inkscape:connector-curvature="0"
         style="opacity:0.1;fill:#1a1a1a" />
      <g
         id="g4581">
        <rect
           id="rect4583"
           height="1.5880001"
           width="1.5880001"
           y="74.791"
           x="46.061001"
           style="fill:#cccccc" />
        <rect
           id="rect4585"
           height="0.123"
           width="1.5880001"
           enable-background="new    "
           y="74.791"
           x="46.061001"
           style="opacity:0.2;fill:#ffffff" />
        <rect
           id="rect4587"
           height="0.123"
           width="1.5880001"
           enable-background="new    "
           y="76.255997"
           x="46.061001"
           style="opacity:0.1" />
      </g>
    </g>
    <circle
       r="1.908"
       cy="18.015512"
       cx="-332.46405"
       id="connector5pad"
       style="fill:none;stroke:#9a916c;stroke-width:1.22399998"
       inkscape:label="#circle7790"
       transform="matrix(0,-1,1,0,0,0)" />
    <circle
       style="fill:none;stroke:#9a916c;stroke-width:1.22399998"
       id="connector4pad"
       cx="-341.44769"
       cy="18.066324"
       r="1.908"
       inkscape:label="#circle7788"
       transform="matrix(0,-1,1,0,0,0)" />
    <circle
       r="1.908"
       cy="18.066324"
       cx="-350.47635"
       id="connector3pad"
       style="fill:none;stroke:#9a916c;stroke-width:1.22399998"
       inkscape:label="#circle7786"
       transform="matrix(0,-1,1,0,0,0)" />
    <circle
       style="fill:none;stroke:#9a916c;stroke-width:1.22399998"
       id="connector2pad"
       cx="-359.40918"
       cy="18.066324"
       r="1.908"
       inkscape:label="#circle7784"
       transform="matrix(0,-1,1,0,0,0)" />
    <circle
       r="1.908"
       cy="18.042368"
       cx="-368.38992"
       id="connector1pad"
       style="fill:none;stroke:#9a916c;stroke-width:1.22399998"
       inkscape:label="#connector38pin"
       transform="matrix(0,-1,1,0,0,0)" />
    <text
       xml:space="preserve"
       style="font-style:normal;font-variant:normal;font-weight:normal;font-stretch:normal;font-size:4.38405895px;line-height:125%;font-family:OCRA;-inkscape-font-specification:OCRA;letter-spacing:0px;word-spacing:0px;fill:#ffffff;fill-opacity:1;stroke:none;stroke-width:1px;stroke-linecap:butt;stroke-linejoin:miter;stroke-opacity:1"
       x="22.907663"
       y="370.09314"
       id="text7792"
       sodipodi:linespacing="125%"><tspan
         sodipodi:role="line"
         id="tspan7794"
         x="22.907663"
         y="370.09314">VCC</tspan></text>
    <text
       xml:space="preserve"
       style="font-style:normal;font-variant:normal;font-weight:normal;font-stretch:normal;font-size:4.38405895px;line-height:125%;font-family:OCRA;-inkscape-font-specification:OCRA;letter-spacing:0px;word-spacing:0px;fill:#ffffff;fill-opacity:1;stroke:none;stroke-width:1px;stroke-linecap:butt;stroke-linejoin:miter;stroke-opacity:1"
       x="22.907663"
       y="361.08569"
       id="text11933"
       sodipodi:linespacing="125%"><tspan
         sodipodi:role="line"
         id="tspan11935"
         x="22.907663"
         y="361.08569">GND</tspan></text>
    <text
       sodipodi:linespacing="125%"
       id="text11937"
       y="352.07828"
       x="22.907663"
       style="font-style:normal;font-variant:normal;font-weight:normal;font-stretch:normal;font-size:4.38405895px;line-height:125%;font-family:OCRA;-inkscape-font-specification:OCRA;letter-spacing:0px;word-spacing:0px;fill:#ffffff;fill-opacity:1;stroke:none;stroke-width:1px;stroke-linecap:butt;stroke-linejoin:miter;stroke-opacity:1"
       xml:space="preserve"><tspan
         y="352.07828"
         x="22.907663"
         id="tspan11939"
         sodipodi:role="line">SCL</tspan></text>
    <text
       xml:space="preserve"
       style="font-style:normal;font-variant:normal;font-weight:normal;font-stretch:normal;font-size:4.38405895px;line-height:125%;font-family:OCRA;-inkscape-font-specification:OCRA;letter-spacing:0px;word-spacing:0px;fill:#ffffff;fill-opacity:1;stroke:none;stroke-width:1px;stroke-linecap:butt;stroke-linejoin:miter;stroke-opacity:1"
       x="22.907663"
       y="343.07086"
       id="text11941"
       sodipodi:linespacing="125%"><tspan
         sodipodi:role="line"
         id="tspan11943"
         x="22.907663"
         y="343.07086">SDA</tspan></text>
    <text
       sodipodi:linespacing="125%"
       id="text11945"
       y="334.06342"
       x="22.907663"
       style="font-style:normal;font-variant:normal;font-weight:normal;font-stretch:normal;font-size:4.38405895px;line-height:125%;font-family:OCRA;-inkscape-font-specification:OCRA;letter-spacing:0px;word-spacing:0px;fill:#ffffff;fill-opacity:1;stroke:none;stroke-width:1px;stroke-linecap:butt;stroke-linejoin:miter;stroke-opacity:1"
       xml:space="preserve"><tspan
         y="334.06342"
         x="22.907663"
         id="tspan11947"
         sodipodi:role="line">ADDR</tspan></text>
    <text
       xml:space="preserve"
       style="font-style:normal;font-weight:normal;font-size:40px;line-height:125%;font-family:Sans;letter-spacing:0px;word-spacing:0px;fill:#000000;fill-opacity:1;stroke:none;stroke-width:1px;stroke-linecap:butt;stroke-linejoin:miter;stroke-opacity:1"
       x="29.699999"
       y="355.76218"
       id="text12437"
       sodipodi:linespacing="125%"><tspan
         sodipodi:role="line"
         id="tspan12439"
         x="29.699999"
         y="355.76218" /></text>
    <text
       sodipodi:linespacing="125%"
       id="text4361"
       y="-54.571178"
       x="343.85059"
       style="font-style:normal;font-variant:normal;font-weight:normal;font-stretch:normal;font-size:2.78314853px;line-height:125%;font-family:OCRA;-inkscape-font-specification:OCRA;letter-spacing:0px;word-spacing:0px;fill:#ffffff;fill-opacity:1;stroke:none;stroke-width:1px;stroke-linecap:butt;stroke-linejoin:miter;stroke-opacity:1"
       xml:space="preserve"
       transform="matrix(0,1,-1,0,0,0)"><tspan
         y="-54.571178"
         x="343.85059"
         id="tspan4363"
         sodipodi:role="line">BH1750</tspan></text>
    <g
       id="g4407"
       transform="matrix(0,1,-1,0,48.339697,366.85182)">
      <g
         transform="translate(10.275,76.1789)"
         id="_x30_402-cap">
        <g
           id="g4367"
           transform="matrix(0,1,-1,0,4.1105,-1.5595)">
          <g
             id="g4369">
            <g
               id="g4371">
              <rect
                 id="rect4373"
                 height="5.6700001"
                 width="2.559"
                 transform="matrix(2.578893e-6,1,-1,2.578893e-6,-58.6866,84.8835)"
                 y="10.263"
                 x="-73.064003"
                 style="fill:#534741" />
              <rect
                 id="rect4375"
                 height="5.6700001"
                 width="0.021"
                 transform="matrix(2.578893e-6,1,-1,2.578893e-6,-57.4195,86.1506)"
                 y="11.531"
                 x="-71.794998"
                 style="opacity:0.2" />
              <rect
                 id="rect4377"
                 height="5.6700001"
                 width="0.030999999"
                 transform="matrix(2.578893e-6,1,-1,2.578893e-6,-59.9503,83.6198)"
                 y="9"
                 x="-71.801003"
                 style="opacity:0.2;fill:#ffffff" />
            </g>
            <g
               id="g4379">
              <path
                 id="path4381"
                 d="m -69.771,11.819 0,0 0,0 -0.065,0 0,0 c -0.06,0.171 -0.1,0.812 -0.1,1.002 0,0.199 0.035,1.379 0.1,1.557 l 0.888,0 0,-2.559 -0.823,0 z"
                 inkscape:connector-curvature="0"
                 style="fill:#dcdcdc" />
              <path
                 id="path4383"
                 d="m -73.733,11.89 0,-0.071 -0.887,0 0,2.558 0.887,0 c 0.063,-0.181 0.139,-1.354 0.139,-1.556 -0.001,-0.235 -0.055,-0.726 -0.139,-0.931 z"
                 inkscape:connector-curvature="0"
                 style="fill:#dcdcdc" />
              <rect
                 id="rect4385"
                 height="0.88700002"
                 width="0.029999999"
                 transform="matrix(2.578893e-6,1,-1,2.578893e-6,-59.815,88.5383)"
                 y="13.918"
                 x="-74.192001"
                 style="opacity:0.15" />
              <rect
                 id="rect4387"
                 height="0.88700002"
                 width="0.030999999"
                 transform="matrix(2.578893e-6,1,-1,2.578893e-6,-62.3419,86.0114)"
                 y="11.391"
                 x="-74.192001"
                 style="opacity:0.5;fill:#ffffff" />
              <path
                 id="path4389"
                 d="m -68.949,14.378 -0.888,0"
                 inkscape:connector-curvature="0"
                 style="fill:#d1c690" />
              <rect
                 id="rect4391"
                 height="0.88800001"
                 width="0.029999999"
                 transform="matrix(2.578893e-6,1,-1,2.578893e-6,-55.0313,83.7546)"
                 y="13.918"
                 x="-69.407997"
                 style="opacity:0.15" />
              <rect
                 id="rect4393"
                 height="0.88800001"
                 width="0.030999999"
                 transform="matrix(2.578893e-6,1,-1,2.578893e-6,-57.5582,81.2278)"
                 y="11.391"
                 x="-69.408997"
                 style="opacity:0.5;fill:#ffffff" />
              <line
                 id="line4395"
                 y2="14.377"
                 x2="-74.077003"
                 y1="14.377"
                 x1="-74.077003"
                 style="fill:none" />
            </g>
          </g>
        </g>
      </g>
      <rect
         id="rect4397"
         height="0.116"
         width="2.5420001"
         y="5.566"
         x="0.016000001"
         style="opacity:0.1" />
      <rect
         id="rect4399"
         height="0.116"
         width="2.5420001"
         y="0"
         x="0.016000001"
         style="opacity:0.2;fill:#ffffff" />
    </g>
    <g
       id="g4465"
       transform="matrix(0,1,-1,0,48.226414,341.99877)">
      <g
         transform="translate(10.275,83.3789)"
         id="_x30_402-res_1_">
        <g
           id="g4429"
           transform="matrix(0,1,-1,0,4.1105,-1.5595)">
          <g
             id="g4431">
            <g
               id="g4433">
              <rect
                 id="rect4435"
                 height="5.6700001"
                 width="2.559"
                 transform="matrix(2.578893e-6,1,-1,2.578893e-6,-65.8783,92.0909)"
                 y="10.271"
                 x="-80.264"
                 style="fill:#333333" />
              <rect
                 id="rect4437"
                 height="5.6700001"
                 width="0.021"
                 transform="matrix(2.578893e-6,1,-1,2.578893e-6,-64.6112,93.3579)"
                 y="11.538"
                 x="-78.995003"
                 style="opacity:0.2" />
            </g>
            <g
               id="g4439">
              <path
                 id="path4441"
                 d="m -76.97,11.827 0,0 0,0 -0.066,0 0,0 c -0.06,0.171 -0.101,0.812 -0.101,1.002 0,0.199 0.035,1.38 0.101,1.557 l 0.888,0 0,-2.559 -0.822,0 z"
                 inkscape:connector-curvature="0"
                 style="fill:#cccccc" />
              <path
                 id="path4443"
                 d="m -80.933,11.898 0,-0.071 -0.887,0 0,2.558 0.887,0 c 0.063,-0.181 0.117,-1.078 0.117,-1.279 0,-0.236 -0.033,-1.003 -0.117,-1.208 z"
                 inkscape:connector-curvature="0"
                 style="fill:#cccccc" />
              <rect
                 id="rect4445"
                 height="0.88700002"
                 width="0.029999999"
                 transform="matrix(2.578893e-6,1,-1,2.578893e-6,-67.0067,95.7456)"
                 y="13.926"
                 x="-81.390999"
                 style="opacity:0.15" />
              <rect
                 id="rect4447"
                 height="0.88700002"
                 width="0.029999999"
                 transform="matrix(2.578893e-6,1,-1,2.578893e-6,-69.534,93.2183)"
                 y="11.399"
                 x="-81.390999"
                 style="opacity:0.5;fill:#ffffff" />
              <rect
                 id="rect4449"
                 height="0.88800001"
                 width="0.029999999"
                 transform="matrix(2.578893e-6,1,-1,2.578893e-6,-62.223,90.9619)"
                 y="13.926"
                 x="-76.608002"
                 style="opacity:0.15" />
              <rect
                 id="rect4451"
                 height="0.88800001"
                 width="0.029999999"
                 transform="matrix(2.578893e-6,1,-1,2.578893e-6,-64.7504,88.4346)"
                 y="11.398"
                 x="-76.608002"
                 style="opacity:0.5;fill:#ffffff" />
              <line
                 id="line4453"
                 y2="14.385"
                 x2="-81.277"
                 y1="14.385"
                 x1="-81.277"
                 style="fill:none" />
            </g>
          </g>
        </g>
      </g>
      <rect
         id="rect4455"
         height="0.116"
         width="2.5420001"
         y="5.566"
         x="0.016000001"
         style="opacity:0.1" />
      <rect
         id="rect4457"
         height="0.116"
         width="2.5420001"
         y="0"
         x="0.016000001"
         style="opacity:0.2;fill:#ffffff" />
    </g>
    <g
       id="g4530"
       transform="translate(41.580857,356.5249)">
      <rect
         id="rect4532"
         height="2.0610001"
         width="1.457"
         x="6.0619998"
         y="0"
         style="fill:#999999" />
      <rect
         id="rect4534"
         height="2.0610001"
         width="1.455"
         x="3.3039999"
         y="0"
         style="fill:#999999" />
      <rect
         id="rect4536"
         height="2.0610001"
         width="1.455"
         x="0.54500002"
         y="0"
         style="fill:#999999" />
      <rect
         id="rect4538"
         height="0.063000001"
         width="1.457"
         x="6.0619998"
         y="0"
         style="opacity:0.2;fill:#ffffff" />
      <rect
         id="rect4540"
         height="0.063000001"
         width="1.455"
         x="3.3039999"
         y="0"
         style="opacity:0.2;fill:#ffffff" />
      <rect
         id="rect4542"
         height="0.063000001"
         width="1.455"
         x="0.54500002"
         y="0"
         style="opacity:0.2;fill:#ffffff" />
      <rect
         id="rect4544"
         height="2.2249999"
         width="4.2969999"
         y="6.2449999"
         x="1.883"
         style="fill:#999999" />
      <rect
         id="rect4546"
         height="0.067000002"
         width="4.2969999"
         y="8.4020004"
         x="1.883"
         style="opacity:0.2;fill:#ffffff" />
      <rect
         id="rect4548"
         height="4.1849999"
         width="8.0640001"
         y="2.0610001"
         x="0"
         style="fill:#303030" />
      <polygon
         id="polygon4550"
         points="0,6.245 0.302,5.942 7.76,5.942 8.064,6.245 "
         style="fill:#1f1f1f" />
      <polygon
         id="polygon4552"
         points="0,2.061 0.302,2.365 7.76,2.365 8.064,2.061 "
         style="fill:#1f1f1f" />
      <polygon
         id="polygon4554"
         points="8.064,2.061 7.76,2.365 7.76,5.942 8.064,6.245 " />
      <polygon
         id="polygon4556"
         points="0,2.061 0.302,2.365 0.302,5.942 0,6.245 "
         style="fill:#3d3d3d" />
      <circle
         id="circle4558"
         r="0.303"
         cy="2.971"
         cx="7.1539998"
         style="fill:#1f1f1f" />
    </g>
    <g
       transform="matrix(0,1,-1,0,48.339697,351.41322)"
       id="g4656">
      <g
         id="g4658"
         transform="translate(10.275,76.1789)">
        <g
           transform="matrix(0,1,-1,0,4.1105,-1.5595)"
           id="g4660">
          <g
             id="g4662">
            <g
               id="g4664">
              <rect
                 style="fill:#534741"
                 x="-73.064003"
                 y="10.263"
                 transform="matrix(2.578893e-6,1,-1,2.578893e-6,-58.6866,84.8835)"
                 width="2.559"
                 height="5.6700001"
                 id="rect4666" />
              <rect
                 style="opacity:0.2"
                 x="-71.794998"
                 y="11.531"
                 transform="matrix(2.578893e-6,1,-1,2.578893e-6,-57.4195,86.1506)"
                 width="0.021"
                 height="5.6700001"
                 id="rect4668" />
              <rect
                 style="opacity:0.2;fill:#ffffff"
                 x="-71.801003"
                 y="9"
                 transform="matrix(2.578893e-6,1,-1,2.578893e-6,-59.9503,83.6198)"
                 width="0.030999999"
                 height="5.6700001"
                 id="rect4670" />
            </g>
            <g
               id="g4672">
              <path
                 style="fill:#dcdcdc"
                 inkscape:connector-curvature="0"
                 d="m -69.771,11.819 0,0 0,0 -0.065,0 0,0 c -0.06,0.171 -0.1,0.812 -0.1,1.002 0,0.199 0.035,1.379 0.1,1.557 l 0.888,0 0,-2.559 -0.823,0 z"
                 id="path4674" />
              <path
                 style="fill:#dcdcdc"
                 inkscape:connector-curvature="0"
                 d="m -73.733,11.89 0,-0.071 -0.887,0 0,2.558 0.887,0 c 0.063,-0.181 0.139,-1.354 0.139,-1.556 -0.001,-0.235 -0.055,-0.726 -0.139,-0.931 z"
                 id="path4676" />
              <rect
                 style="opacity:0.15"
                 x="-74.192001"
                 y="13.918"
                 transform="matrix(2.578893e-6,1,-1,2.578893e-6,-59.815,88.5383)"
                 width="0.029999999"
                 height="0.88700002"
                 id="rect4678" />
              <rect
                 style="opacity:0.5;fill:#ffffff"
                 x="-74.192001"
                 y="11.391"
                 transform="matrix(2.578893e-6,1,-1,2.578893e-6,-62.3419,86.0114)"
                 width="0.030999999"
                 height="0.88700002"
                 id="rect4680" />
              <path
                 style="fill:#d1c690"
                 inkscape:connector-curvature="0"
                 d="m -68.949,14.378 -0.888,0"
                 id="path4682" />
              <rect
                 style="opacity:0.15"
                 x="-69.407997"
                 y="13.918"
                 transform="matrix(2.578893e-6,1,-1,2.578893e-6,-55.0313,83.7546)"
                 width="0.029999999"
                 height="0.88800001"
                 id="rect4684" />
              <rect
                 style="opacity:0.5;fill:#ffffff"
                 x="-69.408997"
                 y="11.391"
                 transform="matrix(2.578893e-6,1,-1,2.578893e-6,-57.5582,81.2278)"
                 width="0.030999999"
                 height="0.88800001"
                 id="rect4686" />
              <line
                 style="fill:none"
                 x1="-74.077003"
                 y1="14.377"
                 x2="-74.077003"
                 y2="14.377"
                 id="line4688" />
            </g>
          </g>
        </g>
      </g>
      <rect
         style="opacity:0.1"
         x="0.016000001"
         y="5.566"
         width="2.5420001"
         height="0.116"
         id="rect4690" />
      <rect
         style="opacity:0.2;fill:#ffffff"
         x="0.016000001"
         y="0"
         width="2.5420001"
         height="0.116"
         id="rect4692" />
    </g>
    <g
       id="g4694"
       transform="matrix(0,1,-1,0,48.339697,347.09949)">
      <g
         transform="translate(10.275,76.1789)"
         id="g4696">
        <g
           id="g4698"
           transform="matrix(0,1,-1,0,4.1105,-1.5595)">
          <g
             id="g4700">
            <g
               id="g4702">
              <rect
                 id="rect4704"
                 height="5.6700001"
                 width="2.559"
                 transform="matrix(2.578893e-6,1,-1,2.578893e-6,-58.6866,84.8835)"
                 y="10.263"
                 x="-73.064003"
                 style="fill:#534741" />
              <rect
                 id="rect4706"
                 height="5.6700001"
                 width="0.021"
                 transform="matrix(2.578893e-6,1,-1,2.578893e-6,-57.4195,86.1506)"
                 y="11.531"
                 x="-71.794998"
                 style="opacity:0.2" />
              <rect
                 id="rect4708"
                 height="5.6700001"
                 width="0.030999999"
                 transform="matrix(2.578893e-6,1,-1,2.578893e-6,-59.9503,83.6198)"
                 y="9"
                 x="-71.801003"
                 style="opacity:0.2;fill:#ffffff" />
            </g>
            <g
               id="g4710">
              <path
                 id="path4712"
                 d="m -69.771,11.819 0,0 0,0 -0.065,0 0,0 c -0.06,0.171 -0.1,0.812 -0.1,1.002 0,0.199 0.035,1.379 0.1,1.557 l 0.888,0 0,-2.559 -0.823,0 z"
                 inkscape:connector-curvature="0"
                 style="fill:#dcdcdc" />
              <path
                 id="path4714"
                 d="m -73.733,11.89 0,-0.071 -0.887,0 0,2.558 0.887,0 c 0.063,-0.181 0.139,-1.354 0.139,-1.556 -0.001,-0.235 -0.055,-0.726 -0.139,-0.931 z"
                 inkscape:connector-curvature="0"
                 style="fill:#dcdcdc" />
              <rect
                 id="rect4716"
                 height="0.88700002"
                 width="0.029999999"
                 transform="matrix(2.578893e-6,1,-1,2.578893e-6,-59.815,88.5383)"
                 y="13.918"
                 x="-74.192001"
                 style="opacity:0.15" />
              <rect
                 id="rect4718"
                 height="0.88700002"
                 width="0.030999999"
                 transform="matrix(2.578893e-6,1,-1,2.578893e-6,-62.3419,86.0114)"
                 y="11.391"
                 x="-74.192001"
                 style="opacity:0.5;fill:#ffffff" />
              <path
                 id="path4720"
                 d="m -68.949,14.378 -0.888,0"
                 inkscape:connector-curvature="0"
                 style="fill:#d1c690" />
              <rect
                 id="rect4722"
                 height="0.88800001"
                 width="0.029999999"
                 transform="matrix(2.578893e-6,1,-1,2.578893e-6,-55.0313,83.7546)"
                 y="13.918"
                 x="-69.407997"
                 style="opacity:0.15" />
              <rect
                 id="rect4724"
                 height="0.88800001"
                 width="0.030999999"
                 transform="matrix(2.578893e-6,1,-1,2.578893e-6,-57.5582,81.2278)"
                 y="11.391"
                 x="-69.408997"
                 style="opacity:0.5;fill:#ffffff" />
              <line
                 id="line4726"
                 y2="14.377"
                 x2="-74.077003"
                 y1="14.377"
                 x1="-74.077003"
                 style="fill:none" />
            </g>
          </g>
        </g>
      </g>
      <rect
         id="rect4728"
         height="0.116"
         width="2.5420001"
         y="5.566"
         x="0.016000001"
         style="opacity:0.1" />
      <rect
         id="rect4730"
         height="0.116"
         width="2.5420001"
         y="0"
         x="0.016000001"
         style="opacity:0.2;fill:#ffffff" />
    </g>
    <g
       transform="matrix(0,1,-1,0,48.226414,337.79856)"
       id="g4734">
      <g
         id="g4736"
         transform="translate(10.275,83.3789)">
        <g
           transform="matrix(0,1,-1,0,4.1105,-1.5595)"
           id="g4738">
          <g
             id="g4740">
            <g
               id="g4742">
              <rect
                 style="fill:#333333"
                 x="-80.264"
                 y="10.271"
                 transform="matrix(2.578893e-6,1,-1,2.578893e-6,-65.8783,92.0909)"
                 width="2.559"
                 height="5.6700001"
                 id="rect4744" />
              <rect
                 style="opacity:0.2"
                 x="-78.995003"
                 y="11.538"
                 transform="matrix(2.578893e-6,1,-1,2.578893e-6,-64.6112,93.3579)"
                 width="0.021"
                 height="5.6700001"
                 id="rect4746" />
            </g>
            <g
               id="g4748">
              <path
                 style="fill:#cccccc"
                 inkscape:connector-curvature="0"
                 d="m -76.97,11.827 0,0 0,0 -0.066,0 0,0 c -0.06,0.171 -0.101,0.812 -0.101,1.002 0,0.199 0.035,1.38 0.101,1.557 l 0.888,0 0,-2.559 -0.822,0 z"
                 id="path4750" />
              <path
                 style="fill:#cccccc"
                 inkscape:connector-curvature="0"
                 d="m -80.933,11.898 0,-0.071 -0.887,0 0,2.558 0.887,0 c 0.063,-0.181 0.117,-1.078 0.117,-1.279 0,-0.236 -0.033,-1.003 -0.117,-1.208 z"
                 id="path4752" />
              <rect
                 style="opacity:0.15"
                 x="-81.390999"
                 y="13.926"
                 transform="matrix(2.578893e-6,1,-1,2.578893e-6,-67.0067,95.7456)"
                 width="0.029999999"
                 height="0.88700002"
                 id="rect4754" />
              <rect
                 style="opacity:0.5;fill:#ffffff"
                 x="-81.390999"
                 y="11.399"
                 transform="matrix(2.578893e-6,1,-1,2.578893e-6,-69.534,93.2183)"
                 width="0.029999999"
                 height="0.88700002"
                 id="rect4756" />
              <rect
                 style="opacity:0.15"
                 x="-76.608002"
                 y="13.926"
                 transform="matrix(2.578893e-6,1,-1,2.578893e-6,-62.223,90.9619)"
                 width="0.029999999"
                 height="0.88800001"
                 id="rect4758" />
              <rect
                 style="opacity:0.5;fill:#ffffff"
                 x="-76.608002"
                 y="11.398"
                 transform="matrix(2.578893e-6,1,-1,2.578893e-6,-64.7504,88.4346)"
                 width="0.029999999"
                 height="0.88800001"
                 id="rect4760" />
              <line
                 style="fill:none"
                 x1="-81.277"
                 y1="14.385"
                 x2="-81.277"
                 y2="14.385"
                 id="line4762" />
            </g>
          </g>
        </g>
      </g>
      <rect
         style="opacity:0.1"
         x="0.016000001"
         y="5.566"
         width="2.5420001"
         height="0.116"
         id="rect4764" />
      <rect
         style="opacity:0.2;fill:#ffffff"
         x="0.016000001"
         y="0"
         width="2.5420001"
         height="0.116"
         id="rect4766" />
    </g>
    <g
       id="g4768"
       transform="matrix(0,1,-1,0,48.226414,333.71187)">
      <g
         transform="translate(10.275,83.3789)"
         id="g4770">
        <g
           id="g4772"
           transform="matrix(0,1,-1,0,4.1105,-1.5595)">
          <g
             id="g4774">
            <g
               id="g4776">
              <rect
                 id="rect4778"
                 height="5.6700001"
                 width="2.559"
                 transform="matrix(2.578893e-6,1,-1,2.578893e-6,-65.8783,92.0909)"
                 y="10.271"
                 x="-80.264"
                 style="fill:#333333" />
              <rect
                 id="rect4780"
                 height="5.6700001"
                 width="0.021"
                 transform="matrix(2.578893e-6,1,-1,2.578893e-6,-64.6112,93.3579)"
                 y="11.538"
                 x="-78.995003"
                 style="opacity:0.2" />
            </g>
            <g
               id="g4782">
              <path
                 id="path4784"
                 d="m -76.97,11.827 0,0 0,0 -0.066,0 0,0 c -0.06,0.171 -0.101,0.812 -0.101,1.002 0,0.199 0.035,1.38 0.101,1.557 l 0.888,0 0,-2.559 -0.822,0 z"
                 inkscape:connector-curvature="0"
                 style="fill:#cccccc" />
              <path
                 id="path4786"
                 d="m -80.933,11.898 0,-0.071 -0.887,0 0,2.558 0.887,0 c 0.063,-0.181 0.117,-1.078 0.117,-1.279 0,-0.236 -0.033,-1.003 -0.117,-1.208 z"
                 inkscape:connector-curvature="0"
                 style="fill:#cccccc" />
              <rect
                 id="rect4788"
                 height="0.88700002"
                 width="0.029999999"
                 transform="matrix(2.578893e-6,1,-1,2.578893e-6,-67.0067,95.7456)"
                 y="13.926"
                 x="-81.390999"
                 style="opacity:0.15" />
              <rect
                 id="rect4790"
                 height="0.88700002"
                 width="0.029999999"
                 transform="matrix(2.578893e-6,1,-1,2.578893e-6,-69.534,93.2183)"
                 y="11.399"
                 x="-81.390999"
                 style="opacity:0.5;fill:#ffffff" />
              <rect
                 id="rect4792"
                 height="0.88800001"
                 width="0.029999999"
                 transform="matrix(2.578893e-6,1,-1,2.578893e-6,-62.223,90.9619)"
                 y="13.926"
                 x="-76.608002"
                 style="opacity:0.15" />
              <rect
                 id="rect4794"
                 height="0.88800001"
                 width="0.029999999"
                 transform="matrix(2.578893e-6,1,-1,2.578893e-6,-64.7504,88.4346)"
                 y="11.398"
                 x="-76.608002"
                 style="opacity:0.5;fill:#ffffff" />
              <line
                 id="line4796"
                 y2="14.385"
                 x2="-81.277"
                 y1="14.385"
                 x1="-81.277"
                 style="fill:none" />
            </g>
          </g>
        </g>
      </g>
      <rect
         id="rect4798"
         height="0.116"
         width="2.5420001"
         y="5.566"
         x="0.016000001"
         style="opacity:0.1" />
      <rect
         id="rect4800"
         height="0.116"
         width="2.5420001"
         y="0"
         x="0.016000001"
         style="opacity:0.2;fill:#ffffff" />
    </g>
    <circle
       style="fill:#000000;fill-opacity:1;stroke:none;stroke-width:0.44999999;stroke-miterlimit:4;stroke-dasharray:none;stroke-opacity:1"
       id="path4802"
       cx="67.5"
       cy="336.86215"
       r="4.5" />
    <circle
       r="4.5"
       cy="363.8797"
       cx="67.5"
       id="circle4809"
       style="fill:#000000;fill-opacity:1;stroke:none;stroke-width:0.44999999;stroke-miterlimit:4;stroke-dasharray:none;stroke-opacity:1" />
  </g>
</svg>
