<?xml version="1.0" encoding="UTF-8" standalone="no"?>
<svg
   xmlns:dc="http://purl.org/dc/elements/1.1/"
   xmlns:cc="http://creativecommons.org/ns#"
   xmlns:rdf="http://www.w3.org/1999/02/22-rdf-syntax-ns#"
   xmlns:svg="http://www.w3.org/2000/svg"
   xmlns="http://www.w3.org/2000/svg"
   xmlns:sodipodi="http://sodipodi.sourceforge.net/DTD/sodipodi-0.dtd"
   xmlns:inkscape="http://www.inkscape.org/namespaces/inkscape"
   width="0.4in"
   xml:space="preserve"
   inkscape:version="0.91 r13725"
   version="1.2"
   height="0.33in"
   viewBox="0 0 40.0 33.0"
   sodipodi:docname="LM393.svg"
   id="svg2"><metadata
     id="metadata3462"><rdf:RDF><cc:Work
         rdf:about=""><dc:format>image/svg+xml</dc:format><dc:type
           rdf:resource="http://purl.org/dc/dcmitype/StillImage" /><dc:title></dc:title></cc:Work></rdf:RDF></metadata><defs
     id="defs3460"><inkscape:perspective
       inkscape:vp_x="0 : 14.85 : 1"
       inkscape:vp_y="0 : 1000 : 0"
       inkscape:vp_z="36 : 14.85 : 1"
       sodipodi:type="inkscape:persp3d"
       id="perspective2904"
       inkscape:persp3d-origin="18 : 9.9000003 : 1" /><inkscape:perspective
       id="perspective2900" /><inkscape:perspective
       id="perspective3464" /><inkscape:perspective
       inkscape:vp_x="0 : 0.5 : 1"
       inkscape:vp_y="0 : 1000 : 0"
       inkscape:vp_z="1 : 0.5 : 1"
       sodipodi:type="inkscape:persp3d"
       id="perspective2914"
       inkscape:persp3d-origin="0.5 : 0.33333333 : 1" /></defs><sodipodi:namedview
     inkscape:window-height="1138"
     inkscape:zoom="10.13468"
     inkscape:cx="-1.3888707"
     inkscape:cy="14.85"
     showgrid="false"
     inkscape:window-width="1920"
     objecttolerance="10"
     pagecolor="#ffffff"
     bordercolor="#666666"
     inkscape:window-x="-8"
     inkscape:window-y="-8"
     inkscape:window-maximized="1"
     inkscape:current-layer="breadboard"
     id="namedview3458"
     borderopacity="1"
     guidetolerance="10"
     gridtolerance="10" /><g
     id="breadboard"><rect
       width="40.0"
       x="0"
       y="3"
       fill="#303030"
       height="27.0"
       id="middle" /><rect
       width="40.0"
       x="0"
       y="3.0"
       fill="#3D3D3D"
       height="2.46"
       id="top" /><rect
       width="40.0"
       x="0"
       y="27.54"
       fill="#000000"
       height="2.46"
       id="bottom" /><polygon
       fill="#141414"
       points="40.0,3 39.25,5.46 39.25,27.54 40.0,30.0"
       id="right" /><polygon
       fill="#1F1F1F"
       points="0,3 0.75,5.46 0.75,27.54 0,30.0"
       id="left" /><polygon
       fill="#1C1C1C"
       points="5,11.5 0.75,11.46 0.56,13.58 0.56,16.5 5,16.5"
       id="left-upper-rect" /><polygon
       fill="#383838"
       points="0.75,21.55 5,21.55 5,16.5 0.56,16.5 0.56,19.42"
       id="left-lower-rect" /><path
       fill="#262626"
       id="slot"
       d="M0.56,13.58v5.83c1.47-0.17,2.62-1.4,2.62-2.92C3.18,14.97,2.04,13.75,0.56,13.58z" /><path
       fill="#303030"
       id="cover"
       d="M0.75,5.46V11.45c2.38,0.45,4.19,2.53,4.19,5.04c0,2.51-1.8,4.6-4.19,5.05V21.55h5.0V5.46H0.75z" /><circle
       fill="#212121"
       cx="6.5"
       cy="23.47"
       r="2.06"
       id="circle3423" /><rect
       width="3"
       x="3.5"
       y="28.66"
       fill="#8C8C8C"
       height="4.34"
       id="connector0pin" /><rect
       width="3"
       x="3.5"
       y="30.0"
       fill="#8C8C8C"
       height="3"
       id="connector0terminal" /><polygon
       fill="#8C8C8C"
       points="3.5,28.66 3.5,30.66 6.5,30.66 8.5,29.74 8.5,28.66  "
       id="polygon3428" /><rect
       width="3"
       x="3.5"
       fill="#8C8C8C"
       height="4.34"
       id="connector7pin" /><rect
       width="3"
       x="3.5"
       fill="#8C8C8C"
       height="3"
       id="connector7terminal" /><polygon
       fill="#8C8C8C"
       points="8.5,4.34 8.5,3.26 6.5,2.34 3.5,2.34 3.5,4.34"
       id="polygon3432" /><rect
       width="3"
       x="33.5"
       y="28.66"
       fill="#8C8C8C"
       height="4.34"
       id="connector3pin" /><rect
       width="3"
       x="33.5"
       y="30.0"
       fill="#8C8C8C"
       height="3"
       id="connector3terminal" /><polygon
       fill="#8C8C8C"
       points="31.5,28.66 31.5,29.74 33.5,30.66 36.5,30.66 36.5,28.66"
       id="polygon3436" /><rect
       width="3"
       x="33.5"
       y="0"
       fill="#8C8C8C"
       height="4.34"
       id="connector4pin" /><rect
       width="3"
       x="33.5"
       y="0"
       fill="#8C8C8C"
       height="3"
       id="connector4terminal" /><polygon
       fill="#8C8C8C"
       points="36.5,4.34 36.5,2.34 33.5,2.34 31.5,3.26 31.5,4.34  "
       id="polygon3440" /><rect
       width="3"
       x="13.5"
       y="28.66"
       fill="#8C8C8C"
       height="4.34"
       id="connector1pin" /><rect
       width="3"
       x="13.5"
       y="30.0"
       fill="#8C8C8C"
       height="3"
       id="connector1terminal" /><polygon
       fill="#8C8C8C"
       points="11.5,28.66 11.5,29.74 13.5,30.66 16.5,30.66 18.5,29.74 18.5,28.66"
       id="polygon3444" /><rect
       width="3"
       x="13.5"
       y="0"
       fill="#8C8C8C"
       height="4.34"
       id="connector6pin" /><rect
       width="3"
       x="13.5"
       fill="#8C8C8C"
       height="3"
       id="connector6terminal" /><polygon
       fill="#8C8C8C"
       points="18.5,4.34 18.5,3.26 16.5,2.34 13.5,2.34 11.5,3.26 11.5,4.34"
       id="polygon3448" /><rect
       width="3"
       x="23.5"
       y="28.66"
       fill="#8C8C8C"
       height="4.34"
       id="connector2pin" /><rect
       width="3"
       x="23.5"
       y="30.0"
       fill="#8C8C8C"
       height="3"
       id="connector2terminal" /><polygon
       fill="#8C8C8C"
       points="21.5,28.66 21.5,29.74 23.5,30.66 26.5,30.66 28.5,29.74 28.5,28.66"
       id="polygon3452" /><rect
       width="3"
       x="23.5"
       y="0"
       fill="#8C8C8C"
       height="4.34"
       id="connector5pin" /><rect
       width="3"
       x="23.5"
       fill="#8C8C8C"
       height="3"
       id="connector5terminal" /><polygon
       fill="#8C8C8C"
       points="28.5,4.34 28.5,3.26 26.5,2.34 23.5,2.34 21.5,3.26 21.5,4.34"
       id="polygon3456" /><g
       sodipodi:linespacing="125%"
       style="font-size:8px;line-height:125%;font-family:OCRA;text-align:start;writing-mode:lr-tb;text-anchor:start;fill:#e6e6e6;stroke:none"
       id="label-1"
       font-size="8"
       transform="translate(2.1926916,0)"><text
         x="5.2038975"
         sodipodi:role="line"
         y="14.680809"
         id="tspan2962">LM393</text>
</g></g></svg>