<?xml version="1.0" encoding="UTF-8" standalone="no"?>
<!-- Created with Inkscape (http://www.inkscape.org/) -->

<svg
   xmlns:dc="http://purl.org/dc/elements/1.1/"
   xmlns:cc="http://creativecommons.org/ns#"
   xmlns:rdf="http://www.w3.org/1999/02/22-rdf-syntax-ns#"
   xmlns:svg="http://www.w3.org/2000/svg"
   xmlns="http://www.w3.org/2000/svg"
   xmlns:sodipodi="http://sodipodi.sourceforge.net/DTD/sodipodi-0.dtd"
   xmlns:inkscape="http://www.inkscape.org/namespaces/inkscape"
   width="1.1914638in"
   height="0.33000007in"
   viewBox="0 0 107.23174 29.700007"
   id="svg2"
   version="1.1"
   inkscape:version="0.91 r13725"
   sodipodi:docname="GY-271 - Copy.svg">
  <defs
     id="defs4">
    <marker
       inkscape:stockid="TriangleOutM"
       orient="auto"
       refY="0"
       refX="0"
       id="marker12549"
       style="overflow:visible"
       inkscape:isstock="true">
      <path
         id="path12551"
         d="m 5.77,0 -8.65,5 0,-10 8.65,5 z"
         style="fill:#ffffff;fill-opacity:1;fill-rule:evenodd;stroke:#ffffff;stroke-width:1pt;stroke-opacity:1"
         transform="scale(0.4,0.4)"
         inkscape:connector-curvature="0" />
    </marker>
    <marker
       inkscape:stockid="Arrow1Lstart"
       orient="auto"
       refY="0"
       refX="0"
       id="Arrow1Lstart"
       style="overflow:visible"
       inkscape:isstock="true">
      <path
         id="path11961"
         d="M 0,0 5,-5 -12.5,0 5,5 0,0 Z"
         style="fill:#ffffff;fill-opacity:1;fill-rule:evenodd;stroke:#ffffff;stroke-width:1pt;stroke-opacity:1"
         transform="matrix(0.8,0,0,0.8,10,0)"
         inkscape:connector-curvature="0" />
    </marker>
    <marker
       inkscape:stockid="Arrow1Mend"
       orient="auto"
       refY="0"
       refX="0"
       id="Arrow1Mend"
       style="overflow:visible"
       inkscape:isstock="true">
      <path
         id="path11970"
         d="M 0,0 5,-5 -12.5,0 5,5 0,0 Z"
         style="fill:#ffffff;fill-opacity:1;fill-rule:evenodd;stroke:#ffffff;stroke-width:1pt;stroke-opacity:1"
         transform="matrix(-0.4,0,0,-0.4,-4,0)"
         inkscape:connector-curvature="0" />
    </marker>
  </defs>
  <sodipodi:namedview
     id="base"
     pagecolor="#ffffff"
     bordercolor="#666666"
     borderopacity="1.0"
     inkscape:pageopacity="0.0"
     inkscape:pageshadow="2"
     inkscape:zoom="4.413636"
     inkscape:cx="1.8287711"
     inkscape:cy="13.245744"
     inkscape:document-units="in"
     inkscape:current-layer="layer1"
     showgrid="true"
     units="in"
     showguides="false"
     inkscape:window-width="1920"
     inkscape:window-height="1138"
     inkscape:window-x="-8"
     inkscape:window-y="-8"
     inkscape:window-maximized="1"
     fit-margin-top="0"
     fit-margin-left="0"
     fit-margin-right="0"
     fit-margin-bottom="0">
    <inkscape:grid
       type="xygrid"
       id="grid3336"
       units="in"
       spacingx="0.90000001"
       spacingy="0.90000001"
       empspacing="10"
       originx="-4.414579"
       originy="-735.82139" />
  </sodipodi:namedview>
  <metadata
     id="metadata7">
    <rdf:RDF>
      <cc:Work
         rdf:about="">
        <dc:format>image/svg+xml</dc:format>
        <dc:type
           rdf:resource="http://purl.org/dc/dcmitype/StillImage" />
        <dc:title></dc:title>
      </cc:Work>
    </rdf:RDF>
  </metadata>
  <g
     inkscape:groupmode="layer"
     id="layer2"
     inkscape:label="Base"
     style="display:inline"
     transform="translate(4.1182933,35.94955)">
    <rect
       transform="translate(-8.5328698,-322.79032)"
       style="fill:#303030"
       width="107.23174"
       x="4.4145751"
       y="289.5408"
       gorn="0.1.0"
       height="24.300003"
       id="middle" />
  </g>
  <g
     inkscape:label="Layer 1"
     inkscape:groupmode="layer"
     id="layer1"
     transform="translate(-4.4145789,-286.84079)"
     style="display:inline">
    <text
       xml:space="preserve"
       style="font-style:normal;font-weight:normal;font-size:40px;line-height:125%;font-family:Sans;letter-spacing:0px;word-spacing:0px;fill:#000000;fill-opacity:1;stroke:none;stroke-width:1px;stroke-linecap:butt;stroke-linejoin:miter;stroke-opacity:1"
       x="29.699999"
       y="355.76218"
       id="text12437"
       sodipodi:linespacing="125%"><tspan
         sodipodi:role="line"
         id="tspan12439"
         x="29.699999"
         y="355.76218" /></text>
    <rect
       style="fill:#3d3d3d"
       width="107.22546"
       x="4.4145751"
       y="289.5408"
       gorn="0.1.1"
       height="2.2140002"
       id="top" />
    <rect
       style="fill:#000000"
       width="107.20607"
       x="4.4145751"
       y="311.6268"
       gorn="0.1.2"
       height="2.2140002"
       id="bottom" />
    <polygon
       style="fill:#141414"
       points="800,300 800,30 792.5,54.6 792.5,275.4 "
       gorn="0.1.3"
       id="right"
       transform="matrix(0.09000001,0,0,0.09000001,39.636162,286.84079)" />
    <polygon
       style="fill:#1f1f1f"
       points="7.5,54.6 7.5,275.4 0,300 0,30 "
       gorn="0.1.4"
       id="left"
       transform="matrix(0.09000001,0,0,0.09000001,4.4145753,286.84079)" />
    <polygon
       style="fill:#1c1c1c"
       points="5.6,165 50,165 50,115 7.5,114.6 5.6,135.8 "
       gorn="0.1.5"
       id="left-upper-rect"
       transform="matrix(0.09000001,0,0,0.09000001,4.4145753,286.84079)" />
    <polygon
       style="fill:#383838"
       points="5.6,165 5.6,194.2 7.5,215.5 50,215.5 50,165 "
       gorn="0.1.6"
       id="left-lower-rect"
       transform="matrix(0.09000001,0,0,0.09000001,4.4145753,286.84079)" />
    <path
       style="fill:#262626"
       inkscape:connector-curvature="0"
       gorn="0.1.7"
       id="slot"
       d="m 4.9185754,299.06279 0,5.247 c 1.3230001,-0.153 2.3580002,-1.26 2.3580002,-2.628 0,-1.368 -1.0260001,-2.466 -2.3580002,-2.619 z" />
    <path
       style="fill:#303030"
       inkscape:connector-curvature="0"
       gorn="0.1.8"
       id="cover"
       d="m 5.0895754,291.75479 0,5.391 c 2.1420002,0.405 3.7710004,2.277 3.7710004,4.536 0,2.259 -1.6200002,4.14 -3.7710004,4.545 l 0,0.009 4.5000005,0 0,-14.481 -4.5000005,0 z" />
    <circle
       style="fill:#212121"
       cx="10.264576"
       cy="307.96381"
       r="1.8540002"
       id="circle4367" />
    <text
       style="font-size:7.20000076px;font-family:OCRA;text-anchor:start;fill:#e6e6e6;stroke:none"
       x="46.264576"
       y="303.6908"
       gorn="0.1.10"
       id="label"
       font-size="80">MAX7221</text>
    <rect
       style="fill:#8c8c8c"
       width="2.7000003"
       x="7.5645757"
       y="312.6348"
       gorn="0.1.11"
       height="3.9060006"
       id="connector0pin" />
    <rect
       style="fill:#8c8c8c"
       width="2.7000003"
       x="7.5645757"
       y="313.84079"
       gorn="0.1.12"
       height="2.7000003"
       id="connector0terminal" />
    <polygon
       style="fill:#8c8c8c"
       points="85,297.4 85,286.6 35,286.6 35,306.6 65,306.6 "
       id="polygon4372"
       transform="matrix(0.09000001,0,0,0.09000001,4.4145753,286.84079)" />
    <rect
       style="fill:#8c8c8c"
       y="286.84079"
       width="2.7000003"
       x="7.5645757"
       gorn="0.1.14"
       height="3.9060006"
       id="connector15pin" />
    <rect
       style="fill:#8c8c8c"
       y="286.84079"
       width="2.7000003"
       x="7.5645757"
       gorn="0.1.15"
       height="2.7000003"
       id="connector15terminal" />
    <polygon
       style="fill:#8c8c8c"
       points="35,23.4 35,43.4 85,43.4 85,32.6 65,23.4 "
       id="polygon4376"
       transform="matrix(0.09000001,0,0,0.09000001,4.4145753,286.84079)" />
    <rect
       style="fill:#8c8c8c"
       width="2.7000003"
       x="106.56458"
       y="312.6348"
       gorn="0.1.17"
       height="3.9060006"
       id="connector7pin" />
    <rect
       style="fill:#8c8c8c"
       width="2.7000003"
       x="106.56458"
       y="313.84079"
       gorn="0.1.18"
       height="2.7000003"
       id="connector7terminal" />
    <polygon
       style="fill:#8c8c8c"
       points="715,297.4 735,306.6 765,306.6 765,286.6 715,286.6 "
       id="polygon4380"
       transform="matrix(0.09000001,0,0,0.09000001,40.414576,286.84079)" />
    <rect
       style="fill:#8c8c8c"
       width="2.7000003"
       x="106.56458"
       y="286.84079"
       gorn="0.1.20"
       height="3.9060006"
       id="connector8pin" />
    <rect
       style="fill:#8c8c8c"
       width="2.7000003"
       x="106.56458"
       y="286.84079"
       gorn="0.1.21"
       height="2.7000003"
       id="connector8terminal" />
    <polygon
       style="fill:#8c8c8c"
       points="765,23.4 735,23.4 715,32.6 715,43.4 765,43.4 "
       id="polygon4384"
       transform="matrix(0.09000001,0,0,0.09000001,40.414576,286.84079)" />
    <rect
       style="fill:#8c8c8c"
       width="2.7000003"
       x="16.564577"
       y="286.84079"
       gorn="0.1.23"
       height="3.9060006"
       id="connector14pin" />
    <rect
       style="fill:#8c8c8c"
       y="286.84079"
       width="2.7000003"
       x="16.564577"
       gorn="0.1.24"
       height="2.7000003"
       id="connector14terminal" />
    <polygon
       style="fill:#8c8c8c"
       points="185,32.6 165,23.4 135,23.4 115,32.6 115,43.4 185,43.4 "
       id="polygon4388"
       transform="matrix(0.09000001,0,0,0.09000001,4.4145753,286.84079)" />
    <rect
       style="fill:#8c8c8c"
       width="2.7000003"
       x="25.564577"
       y="286.84079"
       gorn="0.1.26"
       height="3.9060006"
       id="connector13pin" />
    <rect
       style="fill:#8c8c8c"
       y="286.84079"
       width="2.7000003"
       x="25.564577"
       gorn="0.1.27"
       height="2.7000003"
       id="connector13terminal" />
    <polygon
       style="fill:#8c8c8c"
       points="285,32.6 265,23.4 235,23.4 215,32.6 215,43.4 285,43.4 "
       id="polygon4392"
       transform="matrix(0.09000001,0,0,0.09000001,4.4145753,286.84079)" />
    <rect
       style="fill:#8c8c8c"
       width="2.7000003"
       x="34.564579"
       y="286.84079"
       gorn="0.1.29"
       height="3.9060006"
       id="connector12pin" />
    <rect
       style="fill:#8c8c8c"
       y="286.84079"
       width="2.7000003"
       x="34.564579"
       gorn="0.1.30"
       height="2.7000003"
       id="connector12terminal" />
    <polygon
       style="fill:#8c8c8c"
       points="385,32.6 365,23.4 335,23.4 315,32.6 315,43.4 385,43.4 "
       id="polygon4396"
       transform="matrix(0.09000001,0,0,0.09000001,4.4145753,286.84079)" />
    <rect
       style="fill:#8c8c8c"
       width="2.7000003"
       x="43.564579"
       y="286.84079"
       gorn="0.1.32"
       height="3.9060006"
       id="connector11pin" />
    <rect
       style="fill:#8c8c8c"
       y="286.84079"
       width="2.7000003"
       x="43.564579"
       gorn="0.1.33"
       height="2.7000003"
       id="connector11terminal" />
    <polygon
       style="fill:#8c8c8c"
       points="485,32.6 465,23.4 435,23.4 415,32.6 415,43.4 485,43.4 "
       id="polygon4400"
       transform="matrix(0.09000001,0,0,0.09000001,4.4145753,286.84079)" />
    <rect
       style="fill:#8c8c8c"
       width="2.7000003"
       x="52.564579"
       y="286.84079"
       gorn="0.1.35"
       height="3.9060006"
       id="connector10pin" />
    <rect
       style="fill:#8c8c8c"
       y="286.84079"
       width="2.7000003"
       x="52.564579"
       gorn="0.1.36"
       height="2.7000003"
       id="connector10terminal" />
    <polygon
       style="fill:#8c8c8c"
       points="585,32.6 565,23.4 535,23.4 515,32.6 515,43.4 585,43.4 "
       id="polygon4404"
       transform="matrix(0.09000001,0,0,0.09000001,4.4145753,286.84079)" />
    <rect
       style="fill:#8c8c8c"
       width="2.7000003"
       x="61.564583"
       y="286.84079"
       gorn="0.1.38"
       height="3.9060006"
       id="connector9pin" />
    <rect
       style="fill:#8c8c8c"
       y="286.84079"
       width="2.7000003"
       x="61.564583"
       gorn="0.1.39"
       height="2.7000003"
       id="connector9terminal" />
    <polygon
       style="fill:#8c8c8c"
       points="685,32.6 665,23.4 635,23.4 615,32.6 615,43.4 685,43.4 "
       id="polygon4408"
       transform="matrix(0.09000001,0,0,0.09000001,4.4145753,286.84079)" />
    <rect
       style="fill:#8c8c8c"
       width="2.7000003"
       x="16.564577"
       y="312.6348"
       gorn="0.1.41"
       height="3.9060006"
       id="connector1pin" />
    <rect
       style="fill:#8c8c8c"
       width="2.7000003"
       x="16.564577"
       y="313.84079"
       gorn="0.1.42"
       height="2.7000003"
       id="connector1terminal" />
    <polygon
       style="fill:#8c8c8c"
       points="115,297.4 135,306.6 165,306.6 185,297.4 185,286.6 115,286.6 "
       id="polygon4412"
       transform="matrix(0.09000001,0,0,0.09000001,4.4145753,286.84079)" />
    <rect
       style="fill:#8c8c8c"
       width="2.7000003"
       x="25.564577"
       y="312.6348"
       gorn="0.1.44"
       height="3.9060006"
       id="connector2pin" />
    <rect
       style="fill:#8c8c8c"
       width="2.7000003"
       x="25.564577"
       y="313.84079"
       gorn="0.1.45"
       height="2.7000003"
       id="connector2terminal" />
    <polygon
       style="fill:#8c8c8c"
       points="215,297.4 235,306.6 265,306.6 285,297.4 285,286.6 215,286.6 "
       id="polygon4416"
       transform="matrix(0.09000001,0,0,0.09000001,4.4145753,286.84079)" />
    <rect
       style="fill:#8c8c8c"
       width="2.7000003"
       x="34.564579"
       y="312.6348"
       gorn="0.1.47"
       height="3.9060006"
       id="connector3pin" />
    <rect
       style="fill:#8c8c8c"
       width="2.7000003"
       x="34.564579"
       y="313.84079"
       gorn="0.1.48"
       height="2.7000003"
       id="connector3terminal" />
    <polygon
       style="fill:#8c8c8c"
       points="315,297.4 335,306.6 365,306.6 385,297.4 385,286.6 315,286.6 "
       id="polygon4420"
       transform="matrix(0.09000001,0,0,0.09000001,4.4145753,286.84079)" />
    <rect
       style="fill:#8c8c8c"
       width="2.7000003"
       x="43.564579"
       y="312.6348"
       gorn="0.1.50"
       height="3.9060006"
       id="connector4pin" />
    <rect
       style="fill:#8c8c8c"
       width="2.7000003"
       x="43.564579"
       y="313.84079"
       gorn="0.1.51"
       height="2.7000003"
       id="connector4terminal" />
    <polygon
       style="fill:#8c8c8c"
       points="415,297.4 435,306.6 465,306.6 485,297.4 485,286.6 415,286.6 "
       id="polygon4424"
       transform="matrix(0.09000001,0,0,0.09000001,4.4145753,286.84079)" />
    <rect
       style="fill:#8c8c8c"
       width="2.7000003"
       x="52.564579"
       y="312.6348"
       gorn="0.1.53"
       height="3.9060006"
       id="connector5pin" />
    <rect
       style="fill:#8c8c8c"
       width="2.7000003"
       x="52.564579"
       y="313.84079"
       gorn="0.1.54"
       height="2.7000003"
       id="connector5terminal" />
    <polygon
       style="fill:#8c8c8c"
       points="515,297.4 535,306.6 565,306.6 585,297.4 585,286.6 515,286.6 "
       id="polygon4428"
       transform="matrix(0.09000001,0,0,0.09000001,4.4145753,286.84079)" />
    <rect
       style="fill:#8c8c8c"
       width="2.7000003"
       x="61.564583"
       y="312.6348"
       gorn="0.1.56"
       height="3.9060006"
       id="connector6pin" />
    <rect
       style="fill:#8c8c8c"
       width="2.7000003"
       x="61.564583"
       y="313.84079"
       gorn="0.1.57"
       height="2.7000003"
       id="connector6terminal" />
    <polygon
       style="fill:#8c8c8c"
       points="615,297.4 635,306.6 665,306.6 685,297.4 685,286.6 615,286.6 "
       id="polygon4432"
       transform="matrix(0.09000001,0,0,0.09000001,4.4145753,286.84079)" />
    <rect
       id="rect4618"
       height="3.9060006"
       gorn="0.1.47"
       y="312.6348"
       x="70.564583"
       width="2.7000003"
       style="fill:#8c8c8c" />
    <rect
       id="rect4620"
       height="2.7000003"
       gorn="0.1.48"
       y="313.84079"
       x="70.564583"
       width="2.7000003"
       style="fill:#8c8c8c" />
    <polygon
       transform="matrix(0.09000001,0,0,0.09000001,40.414576,286.84079)"
       id="polygon4622"
       points="385,286.6 315,286.6 315,297.4 335,306.6 365,306.6 385,297.4 "
       style="fill:#8c8c8c" />
    <rect
       id="rect4624"
       height="3.9060006"
       gorn="0.1.50"
       y="312.6348"
       x="79.564583"
       width="2.7000003"
       style="fill:#8c8c8c" />
    <rect
       id="rect4626"
       height="2.7000003"
       gorn="0.1.51"
       y="313.84079"
       x="79.564583"
       width="2.7000003"
       style="fill:#8c8c8c" />
    <polygon
       transform="matrix(0.09000001,0,0,0.09000001,40.414576,286.84079)"
       id="polygon4628"
       points="485,286.6 415,286.6 415,297.4 435,306.6 465,306.6 485,297.4 "
       style="fill:#8c8c8c" />
    <rect
       id="rect4630"
       height="3.9060006"
       gorn="0.1.53"
       y="312.6348"
       x="88.564583"
       width="2.7000003"
       style="fill:#8c8c8c" />
    <rect
       id="rect4632"
       height="2.7000003"
       gorn="0.1.54"
       y="313.84079"
       x="88.564583"
       width="2.7000003"
       style="fill:#8c8c8c" />
    <polygon
       transform="matrix(0.09000001,0,0,0.09000001,40.414576,286.84079)"
       id="polygon4634"
       points="585,286.6 515,286.6 515,297.4 535,306.6 565,306.6 585,297.4 "
       style="fill:#8c8c8c" />
    <rect
       id="rect4636"
       height="3.9060006"
       gorn="0.1.56"
       y="312.6348"
       x="97.564583"
       width="2.7000003"
       style="fill:#8c8c8c" />
    <rect
       id="rect4638"
       height="2.7000003"
       gorn="0.1.57"
       y="313.84079"
       x="97.564583"
       width="2.7000003"
       style="fill:#8c8c8c" />
    <polygon
       transform="matrix(0.09000001,0,0,0.09000001,40.414576,286.84079)"
       id="polygon4640"
       points="685,286.6 615,286.6 615,297.4 635,306.6 665,306.6 685,297.4 "
       style="fill:#8c8c8c" />
    <rect
       id="rect4642"
       height="3.9060006"
       gorn="0.1.29"
       y="286.84079"
       x="70.564583"
       width="2.7000003"
       style="fill:#8c8c8c" />
    <rect
       id="rect4644"
       height="2.7000003"
       gorn="0.1.30"
       x="70.564583"
       width="2.7000003"
       y="286.84079"
       style="fill:#8c8c8c" />
    <polygon
       transform="matrix(0.09000001,0,0,0.09000001,40.414576,286.84079)"
       id="polygon4646"
       points="335,23.4 315,32.6 315,43.4 385,43.4 385,32.6 365,23.4 "
       style="fill:#8c8c8c" />
    <rect
       id="rect4648"
       height="3.9060006"
       gorn="0.1.32"
       y="286.84079"
       x="79.564583"
       width="2.7000003"
       style="fill:#8c8c8c" />
    <rect
       id="rect4650"
       height="2.7000003"
       gorn="0.1.33"
       x="79.564583"
       width="2.7000003"
       y="286.84079"
       style="fill:#8c8c8c" />
    <polygon
       transform="matrix(0.09000001,0,0,0.09000001,40.414576,286.84079)"
       id="polygon4652"
       points="435,23.4 415,32.6 415,43.4 485,43.4 485,32.6 465,23.4 "
       style="fill:#8c8c8c" />
    <rect
       id="rect4654"
       height="3.9060006"
       gorn="0.1.35"
       y="286.84079"
       x="88.564583"
       width="2.7000003"
       style="fill:#8c8c8c" />
    <rect
       id="rect4656"
       height="2.7000003"
       gorn="0.1.36"
       x="88.564583"
       width="2.7000003"
       y="286.84079"
       style="fill:#8c8c8c" />
    <polygon
       transform="matrix(0.09000001,0,0,0.09000001,40.414576,286.84079)"
       id="polygon4658"
       points="535,23.4 515,32.6 515,43.4 585,43.4 585,32.6 565,23.4 "
       style="fill:#8c8c8c" />
    <rect
       id="rect4660"
       height="3.9060006"
       gorn="0.1.38"
       y="286.84079"
       x="97.564583"
       width="2.7000003"
       style="fill:#8c8c8c" />
    <rect
       id="rect4662"
       height="2.7000003"
       gorn="0.1.39"
       x="97.564583"
       width="2.7000003"
       y="286.84079"
       style="fill:#8c8c8c" />
    <polygon
       transform="matrix(0.09000001,0,0,0.09000001,40.414576,286.84079)"
       id="polygon4664"
       points="635,23.4 615,32.6 615,43.4 685,43.4 685,32.6 665,23.4 "
       style="fill:#8c8c8c" />
  </g>
</svg>
